<svg width="335" height="172" viewBox="0 0 335 172" fill="none" xmlns="http://www.w3.org/2000/svg">
<g id="logo-04 1">
<path id="Vector" d="M83.4523 70.1171C81.8838 70.1171 80.9252 70.5232 80.5476 71.3065C80.1264 72.4252 79.8625 73.5967 79.7633 74.7877C79.5432 76.3351 79.4268 77.8954 79.4148 79.4583C79.3752 79.7952 79.4304 80.1365 79.574 80.4439C79.7177 80.7513 79.9441 81.0127 80.2281 81.1989C81.2014 81.6025 82.2562 81.7714 83.3071 81.6921C84.082 81.7375 84.8523 81.5452 85.5147 81.1409C86.0352 80.656 86.3821 80.014 86.5023 79.3132C87.0251 76.8184 88.0708 75.6 89.6974 75.6C92.4569 75.6 93.8512 78.9071 93.8512 85.5214C94.0634 88.7098 93.4428 91.8986 92.0503 94.7755C91.7683 95.3049 91.351 95.7501 90.8407 96.0661C90.3305 96.382 89.7456 96.5573 89.1455 96.5742C87.8094 96.5742 87.0251 95.6749 86.8218 93.8762C86.7693 93.0501 86.6232 92.2326 86.3861 91.4394C86.175 90.9178 85.8471 90.4514 85.4275 90.0759C84.5078 89.3207 83.3329 88.9469 82.1452 89.0316C81.4164 88.9389 80.6794 89.1255 80.0828 89.5538C79.657 90.1614 79.4802 90.9088 79.5891 91.6425C79.5891 91.8165 79.5891 92.8899 79.5891 94.8046C79.2745 97.261 79.6992 99.7554 80.809 101.97C81.0191 102.269 81.3118 102.501 81.6514 102.637C82.3871 102.829 83.1341 102.974 83.888 103.072C84.4879 103.169 85.0283 103.49 85.3985 103.972C85.7981 104.486 86.0129 105.119 86.0085 105.77C86.0085 107.54 84.9628 108.671 82.9295 109.135C78.8398 109.965 74.6688 110.325 70.4973 110.209C67.2615 110.339 64.022 110.066 60.8537 109.397C60.0793 109.154 59.3994 108.678 58.9075 108.033C58.4239 107.41 58.1585 106.646 58.1523 105.857C58.1317 105.397 58.2211 104.939 58.413 104.52C58.605 104.102 58.894 103.735 59.2561 103.45C59.8456 103.099 60.4683 102.808 61.1151 102.579C61.7813 102.277 62.3479 101.792 62.749 101.181C63.1501 100.57 63.3692 99.8577 63.3808 99.127C63.9211 92.7794 64.0957 86.4061 63.9036 80.0385C64.01 77.2548 63.8544 74.4673 63.4389 71.7126C63.3343 71.1308 63.0855 70.5843 62.7151 70.1232C62.3447 69.662 61.8645 69.3009 61.3184 69.0727C60.4975 68.7816 59.7387 68.3387 59.0818 67.7673C58.7073 67.3117 58.5204 66.7309 58.559 66.1427C58.562 65.6365 58.6977 65.1398 58.9525 64.7021C59.2073 64.2645 59.5723 63.901 60.0113 63.6479C61.0805 62.9514 62.3371 62.5971 63.6132 62.6325C64.5136 62.6325 65.8498 62.6325 67.5926 62.8356C71.3106 63.1547 75.7258 63.2998 80.8671 63.2998C86.4244 63.4338 91.9845 63.2012 97.5111 62.6035H98.4116C98.8703 62.6354 99.3149 62.7757 99.7088 63.0127C100.103 63.2498 100.435 63.5768 100.677 63.967C102.587 66.3533 103.613 69.3251 103.582 72.3799C103.637 73.5801 103.29 74.7644 102.594 75.745C102.291 76.1493 101.896 76.4758 101.441 76.6977C100.987 76.9196 100.486 77.0306 99.9801 77.0215C99.3418 77.0595 98.7088 76.8862 98.1792 76.5283C97.0727 75.4839 96.0346 74.3695 95.0711 73.1921C94.0992 72.0622 92.8001 71.2615 91.3531 70.9004C88.7497 70.3943 86.1046 70.132 83.4523 70.1171Z" fill="#FF4A4A"/>
<path id="Vector_2" d="M119.267 110.456C115.381 110.535 111.566 109.41 108.346 107.236C106.089 105.684 104.237 103.615 102.943 101.202C101.553 98.7305 100.823 95.9434 100.823 93.1085C100.845 90.6401 101.461 88.2132 102.618 86.0322C103.776 83.8512 105.441 81.98 107.474 80.5762C111.717 77.3165 116.936 75.5792 122.288 75.6445C127.107 75.4247 131.823 77.0779 135.447 80.2571C137.054 81.7237 138.325 83.52 139.172 85.5228C140.019 87.5257 140.423 89.6878 140.356 91.8611C140.42 94.3612 139.915 96.8432 138.879 99.1198C137.842 101.396 136.301 103.408 134.372 105.003C130.174 108.604 124.801 110.544 119.267 110.456ZM121.998 102.595C122.454 102.611 122.907 102.519 123.321 102.328C123.734 102.136 124.097 101.85 124.38 101.492C125.014 100.662 125.333 99.6344 125.28 98.5914C125.224 96.7135 124.971 94.8467 124.525 93.0215C124.094 90.8941 123.482 88.8075 122.695 86.7843C122.537 85.9845 122.112 85.2618 121.49 84.7347C120.867 84.2076 120.083 83.9075 119.267 83.8834C117.263 83.8834 116.363 85.1598 116.363 87.7417C116.399 89.9177 116.652 92.0848 117.118 94.2109C117.517 96.2087 118.14 98.1551 118.977 100.013C119.171 100.692 119.561 101.299 120.098 101.758C120.636 102.217 121.296 102.508 121.998 102.595Z" fill="#FF4A4A"/>
<path id="Vector_3" d="M164 75.629C167.886 75.5503 171.701 76.6752 174.921 78.8491C177.178 80.4018 179.03 82.4706 180.324 84.8832C181.714 87.3549 182.444 90.1421 182.445 92.9769C182.409 95.4556 181.776 97.8891 180.597 100.071C179.419 102.253 177.731 104.118 175.677 105.509C171.432 108.765 166.215 110.502 160.863 110.441C156.044 110.661 151.328 109.008 147.704 105.828C146.097 104.362 144.826 102.565 143.979 100.563C143.132 98.5597 142.728 96.3976 142.795 94.2244C142.731 91.7243 143.236 89.2422 144.272 86.9656C145.309 84.6891 146.85 82.6775 148.779 81.0828C153.007 77.4546 158.427 75.5125 164 75.629ZM161.269 83.4907C160.813 83.4748 160.36 83.5663 159.947 83.7578C159.533 83.9493 159.17 84.2355 158.887 84.5931C158.245 85.4203 157.915 86.4478 157.958 87.494C158.027 89.3727 158.289 91.2392 158.742 93.064C159.173 95.1913 159.785 97.278 160.572 99.3011C160.73 100.101 161.155 100.824 161.778 101.351C162.4 101.878 163.184 102.178 164 102.202C166.004 102.202 166.904 100.926 166.904 98.3438C166.868 96.1677 166.615 94.0007 166.149 91.8745C165.751 89.8767 165.127 87.9303 164.29 86.0726C164.096 85.3936 163.706 84.7867 163.169 84.3276C162.632 83.8685 161.971 83.5774 161.269 83.4907Z" fill="#FF4A4A"/>
<path id="Vector_4" d="M224.679 65.8525V96.8642C224.633 98.0103 224.711 99.158 224.912 100.287C225.152 100.898 225.592 101.409 226.161 101.738C226.793 102.144 227.353 102.654 227.816 103.246C228.093 103.711 228.233 104.244 228.223 104.784C228.223 106.612 226.393 108.004 222.762 108.932C219.536 109.768 216.219 110.197 212.886 110.209C212.389 110.262 211.889 110.15 211.463 109.89C211.183 109.414 211.033 108.874 211.027 108.323C211.027 107.192 210.504 106.612 209.807 106.612C209.117 106.758 208.489 107.113 208.006 107.627C205.859 109.483 203.119 110.512 200.28 110.528C196.723 110.511 193.314 109.105 190.781 106.612C189.138 105.062 187.781 103.236 186.773 101.216C185.453 98.731 184.755 95.9637 184.74 93.1509C184.758 89.883 185.672 86.6826 187.383 83.8967C188.973 81.2053 191.288 79.014 194.064 77.5725C196.205 76.4083 198.597 75.7811 201.035 75.7449C203.512 75.6993 205.958 76.3099 208.122 77.5145C208.37 77.6634 208.648 77.7528 208.936 77.7756C209.662 77.7756 210.01 76.8183 210.01 74.8746C210.05 74.1878 209.844 73.5092 209.43 72.96C208.838 72.392 208.107 71.9914 207.309 71.7996C205.857 71.3644 205.16 70.5521 205.16 69.4208C205.16 67.7672 206.786 66.5198 210.098 65.5624C213.871 64.334 217.767 63.5169 221.716 63.1256C223.663 63.0386 224.679 63.9669 224.679 65.8525ZM206.234 82.9394C205.485 82.9546 204.756 83.184 204.133 83.6005C203.51 84.0169 203.019 84.603 202.72 85.2892C201.464 87.8375 200.874 90.6618 201.006 93.499C200.838 95.943 201.415 98.3805 202.662 100.49C203.01 101.023 203.489 101.458 204.054 101.752C204.618 102.047 205.249 102.192 205.886 102.173C206.634 102.164 207.358 101.91 207.946 101.448C208.534 100.986 208.954 100.344 209.139 99.6201C209.948 96.9323 210.291 94.1265 210.156 91.3233C210.371 88.9385 209.961 86.5389 208.965 84.3609C208.663 83.9172 208.255 83.5551 207.779 83.3071C207.302 83.059 206.772 82.9327 206.234 82.9394Z" fill="#FF4A4A"/>
<path id="Vector_5" d="M232.377 93.8182L236.559 74.5266C236.881 73.4058 236.989 72.2349 236.879 71.0744C236.711 70.1911 236.275 69.3808 235.63 68.7536C235.171 68.3013 234.797 67.7708 234.526 67.187C234.391 66.7425 234.391 66.2681 234.526 65.8236C235.136 62.9226 239.086 62.3134 246.319 63.8799C249.46 64.459 252.515 65.4337 255.411 66.7809C256.104 67.1203 256.673 67.6682 257.038 68.3474C257.386 68.9745 257.489 69.7083 257.328 70.4071C257.252 70.903 257.018 71.361 256.66 71.7126C255.977 72.1993 255.235 72.5989 254.452 72.902C253.551 73.3714 252.841 74.1411 252.448 75.0777C251.757 76.7009 251.241 78.393 250.909 80.1255C250.734 80.8507 250.502 82.2432 250.153 84.2739C249.805 86.3046 249.631 87.465 249.601 87.8131C249.602 88.3166 249.733 88.8113 249.982 89.2487C250.232 89.6862 250.591 90.0512 251.025 90.308C251.571 90.6 252.009 91.0587 252.276 91.6172C252.542 92.1756 252.623 92.8045 252.506 93.412C252.187 94.8045 251.083 95.6748 249.137 95.9649C246.318 96.3803 243.475 96.6129 240.626 96.6611C238.342 96.7399 236.055 96.5942 233.8 96.226C232.551 96.0229 232.086 95.1816 232.377 93.8182ZM233.945 109.048C233.21 108.938 232.523 108.616 231.97 108.12C231.761 107.935 231.604 107.698 231.518 107.433C231.431 107.168 231.416 106.884 231.476 106.612C231.566 106.227 231.759 105.875 232.036 105.594C232.313 105.312 232.662 105.112 233.045 105.016C234.594 104.59 236.23 104.59 237.779 105.016C238.396 105.129 238.969 105.41 239.435 105.828C239.677 106.034 239.857 106.304 239.954 106.606C240.052 106.908 240.063 107.232 239.987 107.54C239.813 108.41 239.028 108.961 237.692 109.193C236.455 109.39 235.192 109.341 233.974 109.048H233.945ZM244.722 104.146C243.979 104.013 243.287 103.682 242.717 103.188C242.513 103 242.36 102.763 242.273 102.498C242.187 102.234 242.17 101.952 242.224 101.68C242.321 101.265 242.543 100.89 242.859 100.605C243.176 100.32 243.572 100.138 243.995 100.084C245.545 99.6582 247.181 99.6582 248.73 100.084C249.355 100.198 249.937 100.479 250.415 100.897C250.644 101.112 250.816 101.382 250.912 101.681C251.009 101.981 251.027 102.3 250.967 102.608C250.763 103.478 249.979 104.03 248.643 104.262C247.35 104.475 246.028 104.435 244.751 104.146H244.722ZM244.286 114.473C243.592 114.361 242.945 114.049 242.427 113.574C242.227 113.408 242.078 113.19 241.996 112.944C241.914 112.698 241.902 112.434 241.962 112.181C242.044 111.817 242.225 111.483 242.487 111.216C242.749 110.95 243.08 110.761 243.444 110.673C244.891 110.294 246.411 110.294 247.859 110.673C248.433 110.774 248.967 111.035 249.398 111.427C249.628 111.616 249.799 111.867 249.892 112.149C249.984 112.432 249.994 112.735 249.921 113.023C249.747 113.835 249.021 114.357 247.772 114.56C246.625 114.762 245.45 114.733 244.315 114.473H244.286Z" fill="#FF4A4A"/>
<path id="Vector_6" d="M286.55 94.2823H270.545C269.847 94.2823 269.499 94.6014 269.499 95.2106C269.55 96.0424 269.791 96.8514 270.204 97.5756C270.617 98.2998 271.191 98.9198 271.881 99.3881C273.324 100.619 275.153 101.306 277.051 101.332C279.508 101.231 281.894 100.48 283.964 99.156C284.48 98.7093 285.117 98.4265 285.794 98.3437C286.148 98.3778 286.488 98.4923 286.79 98.6784C287.093 98.8644 287.348 99.1171 287.537 99.4171C288.062 100.057 288.359 100.853 288.38 101.68C288.277 102.655 287.944 103.592 287.409 104.414C286.874 105.235 286.151 105.919 285.301 106.408C281.698 109.095 277.306 110.513 272.81 110.441C268.446 110.575 264.185 109.098 260.843 106.292C259.246 104.909 257.925 103.235 256.951 101.361C255.629 98.8674 254.941 96.0881 254.946 93.267C254.942 89.5391 256.201 85.9195 258.519 82.9975C260.488 80.4162 263.117 78.412 266.129 77.1955C268.51 76.1967 271.07 75.6933 273.653 75.716C277.637 75.5836 281.538 76.8687 284.661 79.3422C286.157 80.5375 287.401 82.0164 288.321 83.6937C289.334 85.3782 289.885 87.2991 289.919 89.2636C289.938 90.5229 289.595 91.7612 288.931 92.8318C288.688 93.2538 288.343 93.6079 287.926 93.8614C287.51 94.1148 287.037 94.2596 286.55 94.2823ZM271.416 87.9291H274.873C276.325 87.9291 277.051 87.2619 277.051 85.9275C277.075 84.8592 276.691 83.8221 275.976 83.0265C275.597 82.6206 275.133 82.3033 274.616 82.0974C274.1 81.8914 273.545 81.8019 272.99 81.8351C272.435 81.8684 271.894 82.0236 271.406 82.2897C270.918 82.5559 270.495 82.9263 270.167 83.3746C269.518 84.2037 269.161 85.2233 269.15 86.2756C269.125 86.5341 269.156 86.795 269.241 87.0404C269.327 87.2858 269.464 87.5098 269.644 87.6971C270.189 87.9799 270.816 88.0621 271.416 87.9291Z" fill="#FF4A4A"/>
</g>
</svg>
