<svg width="296" height="254" viewBox="0 0 296 254" fill="none" xmlns="http://www.w3.org/2000/svg">
<g id="undraw_cooking_p7m1 1" clip-path="url(#clip0_73_1236)">
<g id="Group">
<path id="uuid-25964adc-e6e4-4b9a-b8ec-929b0c1831fb-187" d="M144.312 186.943C151.359 189.135 155.936 194.537 154.536 199.009C153.137 203.48 146.291 205.327 139.242 203.133C136.415 202.296 133.829 200.795 131.702 198.756L101.965 189.092L106.81 175.273L135.612 186.267C138.524 185.796 141.508 186.028 144.312 186.943Z" fill="#FFB6B6"/>
<path id="Vector" d="M80.6058 85.5451C73.515 84.7076 66.9862 89.4866 65.6652 96.4841C60.9538 121.443 50.947 175.414 52.2648 176.728C53.9804 178.439 118.03 197.258 118.03 197.258L125.464 181.291L83.1458 160.761L92.4268 101.066C93.605 93.4876 88.2427 86.4471 80.6058 85.5451Z" fill="#E6E6E6"/>
</g>
<g id="Group_2">
<path id="uuid-a5d71dbf-4b88-4e86-8463-d776047f9b39-188" d="M157.769 212.904C150.894 215.582 143.935 214.215 142.227 209.852C140.519 205.488 144.707 199.781 151.585 197.103C154.318 195.996 157.277 195.558 160.215 195.824L189.49 184.844L194.364 198.654L164.987 208.012C163.007 210.194 160.532 211.872 157.769 212.904Z" fill="#A0616A"/>
<path id="Vector_2" d="M199.987 94.3798C207.005 93.0691 213.841 97.3998 215.631 104.293C222.013 128.879 235.635 182.058 234.408 183.458C232.812 185.28 170.175 208.348 170.175 208.348L161.682 192.915L202.521 169.596L189.238 110.658C187.552 103.176 192.428 95.7916 199.987 94.3798Z" fill="#E6E6E6"/>
</g>
<path id="Vector_3" d="M75.5828 89.1303L79.0708 67.3915L55.527 57.8264L52.0391 90.8694L75.5828 89.1303Z" fill="#FFB6B6"/>
<path id="Vector_4" d="M213.089 92.5519L209.601 70.8131L233.145 61.248L236.633 94.291L213.089 92.5519Z" fill="#A0616A"/>
<g id="Group_3">
<path id="Vector_5" d="M69.6331 74.3797C82.8929 74.3797 93.6421 63.6605 93.6421 50.4378C93.6421 37.2151 82.8929 26.496 69.6331 26.496C56.3732 26.496 45.624 37.2151 45.624 50.4378C45.624 63.6605 56.3732 74.3797 69.6331 74.3797Z" fill="#FFB6B6"/>
<path id="Vector_6" d="M67.7169 18.2497C68.4117 18.6541 69.3422 18.0423 69.565 17.2715C69.7878 16.5007 69.5283 15.6823 69.271 14.9222L67.9755 11.0962C67.0568 8.3826 66.0817 5.57422 64.092 3.50885C61.0887 0.391521 56.3159 -0.401517 52.0195 0.173011C46.5019 0.910815 41.058 3.89014 38.4925 8.81684C35.9271 13.7435 37.0193 20.6181 41.655 23.6918C35.0481 31.2432 32.7451 39.6589 33.1087 49.6738C33.4724 59.6887 44.4167 68.9056 51.5539 75.9607C53.1478 74.9973 54.5968 70.482 53.7203 68.8417C52.8439 67.2014 54.0997 65.3011 53.0142 63.7902C51.9287 62.2793 51.0205 64.6851 52.1179 63.1828C52.8104 62.2348 50.1077 60.0539 51.137 59.4865C56.1157 56.7421 57.7716 50.5537 60.8985 45.8148C64.6702 40.0988 71.1255 36.2279 77.9568 35.5857C81.7199 35.2319 85.6946 35.8727 88.7792 38.0513C91.8637 40.2298 93.8606 44.123 93.1453 47.8241C94.9977 45.9485 95.9198 43.1998 95.572 40.5902C95.2242 37.9806 93.6142 35.5674 91.3348 34.2394C92.7208 29.6689 91.5334 24.4115 88.3165 20.8747C85.0996 17.3379 72.0502 17.9403 67.3537 18.8711" fill="#2F2E41"/>
<path id="Vector_7" d="M66.9876 35.7245C60.7674 36.3941 56.2761 41.7671 52.4837 46.7292C50.2978 49.5892 48.0081 52.7475 48.063 56.3431C48.1185 59.9783 50.5558 63.0963 51.7206 66.5413C53.6246 72.1724 51.769 78.872 47.2367 82.7304C51.7151 83.5778 56.5563 80.2293 57.3294 75.7496C58.2294 70.5347 54.2652 65.5015 54.7347 60.2307C55.1483 55.587 58.818 52.0132 61.9378 48.5411C65.0575 45.0691 67.9875 40.4618 66.5523 36.0249" fill="#2F2E41"/>
</g>
<path id="Vector_8" d="M78.3029 85.485L51.121 78.0715L23.0994 89.4769L11.0901 184.142L79.7145 186.423V171.154C79.7145 171.154 91.7238 156.199 89.4363 134.528L87.1488 112.858L78.3029 85.485Z" fill="#E6E6E6"/>
<path id="Vector_9" d="M90.866 123.978L37.1101 121.127L22.5274 162.472C22.5274 162.472 4.51352 187.278 1.65417 205.527C-1.20518 223.776 0.510429 249.438 0.510429 249.438H86.5702L79.7145 171.154C79.7145 171.154 95.7201 136.524 93.8649 130.536C92.0097 124.549 90.866 123.978 90.866 123.978Z" fill="#FF4A4A"/>
<path id="Vector_10" d="M49.6912 78.3567H36.5382V126.83H49.6912V78.3567Z" fill="#FF4A4A"/>
<path id="Vector_11" d="M90.2941 89.1919H77.1411V129.111H90.2941V89.1919Z" fill="#FF4A4A"/>
<path id="Vector_12" d="M209.225 90.0473L236.407 82.6338L264.429 94.0392L276.438 188.704L207.813 190.985V175.716C207.813 175.716 200.794 160.105 207.528 139.376C214.104 119.131 200.379 117.42 200.379 117.42L209.225 90.0473Z" fill="#E6E6E6"/>
<path id="Vector_13" d="M196.662 128.541L250.418 125.689L265.001 167.034C265.001 167.034 273.865 195.262 276.724 213.511C279.583 231.76 287.018 254 287.018 254H200.958L198.378 178.724L196.662 128.541Z" fill="#FF4A4A"/>
<path id="Vector_14" d="M250.99 82.9188H237.837V131.392H250.99V82.9188Z" fill="#FF4A4A"/>
<path id="Vector_15" d="M210.387 93.754H197.234V133.673H210.387V93.754Z" fill="#FF4A4A"/>
<path id="Vector_16" d="M218.406 77.707C235.013 77.707 248.476 64.2817 248.476 47.7207C248.476 31.1597 235.013 17.7344 218.406 17.7344C201.798 17.7344 188.335 31.1597 188.335 47.7207C188.335 64.2817 201.798 77.707 218.406 77.707Z" fill="#A0616A"/>
<path id="Vector_17" d="M247.984 63.9876C247.984 63.9876 233.435 46.5784 227.616 48.0292C221.797 49.4799 225.434 51.6561 225.434 51.6561L210.885 35.6976C210.885 35.6976 199.247 31.3453 188.335 45.1276C188.335 45.1276 181.789 33.5215 188.335 26.993C194.882 20.4646 197.064 21.19 198.519 17.563C199.974 13.9361 210.158 11.0346 210.158 11.0346C210.158 11.0346 209.574 5.81411 212.776 8.42435C215.977 11.0346 223.973 11.0346 223.973 11.0346C223.973 11.0346 224.019 8.13305 227.272 11.0346C230.526 13.9361 234.163 12.4854 234.163 12.4854C234.163 12.4854 234.163 17.5059 236.709 17.5345C239.255 17.563 243.619 13.9361 244.347 16.8377C245.074 19.7392 250.166 21.19 250.894 29.8946C251.621 38.5992 247.984 63.9876 247.984 63.9876Z" fill="#2F2E41"/>
<g id="Group_4">
<path id="Vector_18" d="M136.459 108.744L159.74 152.633L156.549 154.317L133.267 110.427C132.929 109.79 133.174 108.999 133.813 108.662L134.689 108.2C135.328 107.863 136.121 108.107 136.459 108.744Z" fill="#FF4A4A"/>
<path id="Vector_19" d="M175.246 169.22C169.323 167.697 163.126 170.394 160.154 175.725C156.432 182.401 152.18 187.877 153.604 174.825C155.171 160.456 146.718 148.85 153.361 145.346C160.005 141.841 166.864 152.492 177.662 162.134C187.669 171.071 181.898 170.93 175.246 169.22Z" fill="#FF4A4A"/>
</g>
<g id="Group_5">
<path id="uuid-cca3ea91-4b8f-4d88-9418-fea0098b5ff4-189" d="M140.962 117.623C147.676 114.565 154.7 115.542 156.651 119.803C158.601 124.065 154.739 129.996 148.022 133.054C145.355 134.312 142.426 134.915 139.478 134.812L110.864 147.407L105.223 133.892L134.03 122.91C135.884 120.621 138.261 118.808 140.962 117.623Z" fill="#FFB6B6"/>
<path id="Vector_20" d="M25.656 84.5118C19.8151 88.6074 18.1516 96.5115 21.8512 102.602C35.047 124.324 63.7173 171.176 65.5781 171.277C68.0008 171.41 128.293 142.796 128.293 142.796L123.142 125.957L77.8881 138.834L44.8468 88.2027C40.6522 81.7751 31.9469 80.1008 25.656 84.5118Z" fill="#E6E6E6"/>
</g>
<path id="Vector_21" d="M143.823 185.026L221.165 144.229L230.659 162.127C238.849 177.566 232.928 196.731 217.446 204.898L196.208 216.101C180.726 224.268 161.507 218.364 153.317 202.924L143.823 185.026Z" fill="#2F2E41"/>
<path id="uuid-f7f7485f-a1d4-48b6-9f93-907c0610bac7-190" d="M209.349 212.45C202.635 215.508 195.611 214.532 193.66 210.271C191.709 206.01 195.57 200.078 202.287 197.02C204.953 195.761 207.883 195.158 210.831 195.26L239.442 182.661L245.085 196.176L216.28 207.162C214.426 209.451 212.05 211.264 209.349 212.45Z" fill="#A0616A"/>
<path id="Vector_22" d="M267.54 91.818C274.631 90.9805 281.16 95.7596 282.481 102.757C287.193 127.716 297.199 181.687 295.882 183.001C294.166 184.712 230.116 203.531 230.116 203.531L222.682 187.563L265.001 167.034L255.72 107.339C254.541 99.7606 259.904 92.72 267.54 91.818Z" fill="#E6E6E6"/>
</g>
<defs>
<clipPath id="clip0_73_1236">
<rect width="296" height="254" fill="white"/>
</clipPath>
</defs>
</svg>
