<svg width="322" height="324" viewBox="0 0 322 324" fill="none" xmlns="http://www.w3.org/2000/svg">
<g id="undraw_winners_re_wr1l 1" clip-path="url(#clip0_73_1274)">
<path id="Vector" d="M81.2259 310.914C80.8706 310.93 80.5188 310.837 80.2183 310.647C79.9178 310.457 79.683 310.179 79.5458 309.852C79.4086 309.524 79.3756 309.162 79.4512 308.815C79.5269 308.468 79.7075 308.152 79.9687 307.911C80.0124 307.737 80.0438 307.613 80.0875 307.439C79.7475 306.576 79.1573 305.835 78.3925 305.309C77.6277 304.784 76.7232 304.498 75.795 304.489C74.8667 304.481 73.957 304.749 73.1825 305.26C72.4079 305.771 71.8037 306.501 71.4475 307.358C69.3916 312.164 66.7309 317.139 68.0541 322.433C59.3137 303.931 62.2861 280.917 75.2033 265.095C78.7738 263.13 81.6677 259.64 82.4211 255.587C80.654 256.185 78.4508 254.75 79.7795 252.891C80.3554 252.18 80.9368 251.475 81.5127 250.765C74.8002 243.625 66.8025 254.846 74.1909 264.483C71.774 267.51 69.6804 270.78 67.9444 274.242C68.3453 270.566 67.8668 266.848 66.5483 263.393C65.212 260.174 62.7073 257.462 60.5016 254.678C57.8198 251.287 52.3003 252.851 51.9394 257.155C54.4144 257.968 54.7359 261.539 51.9049 262.027C52.6464 270.034 57.8836 277.392 65.0968 280.904C62.4331 288.369 61.3929 296.315 62.0457 304.213C60.7725 294.982 50.8521 292.742 43.9183 289.074C43.477 288.791 42.9628 288.643 42.4386 288.647C41.9143 288.651 41.4026 288.808 40.9659 289.097C40.5292 289.387 40.1863 289.797 39.9791 290.278C39.772 290.759 39.7094 291.29 39.7991 291.806C40.7561 292.195 41.6721 292.678 42.5336 293.247C42.9373 293.518 43.2471 293.907 43.4207 294.361C43.5942 294.815 43.623 295.311 43.503 295.782C43.3831 296.253 43.1202 296.675 42.7506 296.991C42.3809 297.307 41.9225 297.501 41.4382 297.546C44.9333 306.186 53.9696 311.987 63.2503 311.955C64.1422 315.826 65.4344 319.593 67.1062 323.197H80.8807C80.9301 323.045 80.9745 322.887 81.019 322.734C79.744 322.814 78.464 322.738 77.2075 322.507C80.5808 318.518 83.1895 316.483 81.2263 310.914L81.2259 310.914Z" fill="#F2F2F2"/>
<path id="Vector_2" d="M204.028 310.914C204.384 310.93 204.735 310.837 205.036 310.647C205.336 310.457 205.571 310.179 205.708 309.852C205.846 309.524 205.879 309.162 205.803 308.815C205.727 308.468 205.547 308.152 205.286 307.911C205.242 307.737 205.21 307.613 205.167 307.439C205.507 306.576 206.097 305.835 206.862 305.309C207.626 304.784 208.531 304.498 209.459 304.489C210.387 304.481 211.297 304.749 212.072 305.26C212.846 305.771 213.45 306.501 213.807 307.358C215.863 312.164 218.523 317.139 217.2 322.433C225.941 303.931 222.968 280.917 210.051 265.095C206.48 263.13 203.587 259.64 202.833 255.587C204.6 256.185 206.803 254.75 205.475 252.891C204.899 252.18 204.317 251.475 203.742 250.765C210.454 243.625 218.452 254.846 211.063 264.483C213.48 267.51 215.574 270.78 217.31 274.242C216.909 270.566 217.387 266.848 218.706 263.393C220.042 260.174 222.547 257.462 224.753 254.678C227.434 251.287 232.954 252.851 233.315 257.155C230.84 257.968 230.518 261.539 233.349 262.027C232.608 270.034 227.371 277.392 220.157 280.904C222.821 288.369 223.861 296.315 223.209 304.213C224.482 294.982 234.402 292.742 241.336 289.074C241.777 288.791 242.291 288.643 242.816 288.647C243.34 288.651 243.852 288.808 244.288 289.097C244.725 289.387 245.068 289.797 245.275 290.278C245.482 290.759 245.545 291.29 245.455 291.806C244.498 292.195 243.582 292.678 242.721 293.247C242.317 293.518 242.007 293.907 241.834 294.361C241.66 294.815 241.631 295.311 241.751 295.782C241.871 296.253 242.134 296.675 242.504 296.991C242.873 297.307 243.332 297.501 243.816 297.546C240.321 306.186 231.285 311.987 222.004 311.955C221.112 315.826 219.82 319.593 218.148 323.197H204.374C204.324 323.045 204.28 322.887 204.235 322.734C205.51 322.814 206.79 322.738 208.047 322.507C204.673 318.518 202.065 316.483 204.028 310.914Z" fill="#F2F2F2"/>
<path id="Vector_3" d="M209.136 312.957L203.204 314.304L195.175 292.093L203.93 290.103L209.136 312.957Z" fill="#FFB6B6"/>
<path id="Vector_4" d="M210.753 319.09L192.511 323.235L192.459 323.005C192.03 321.124 192.367 319.15 193.396 317.518C194.424 315.885 196.06 314.728 197.943 314.3L200.7 311.017L207.493 312.129L209.085 311.768L210.753 319.09Z" fill="#2F2E41"/>
<path id="Vector_5" d="M304.829 204.69L308.09 209.819L289.833 224.824L285.02 217.254L304.829 204.69Z" fill="#FFB6B6"/>
<path id="Vector_6" d="M310.072 201.111L320.101 216.884L319.901 217.011C318.271 218.045 316.296 218.39 314.411 217.969C312.527 217.549 310.886 216.399 309.851 214.77L305.83 213.277L304.6 206.513L303.725 205.136L310.072 201.111Z" fill="#2F2E41"/>
<path id="Vector_7" d="M115.737 149.85L114.272 141.368L136.546 131.322L141.357 122.816C141.201 122.069 141.256 121.294 141.514 120.577C141.771 119.859 142.223 119.227 142.818 118.749C143.413 118.272 144.129 117.968 144.886 117.871C145.643 117.775 146.412 117.889 147.109 118.201C147.805 118.514 148.401 119.013 148.831 119.642C149.262 120.272 149.509 121.008 149.547 121.77C149.585 122.531 149.411 123.288 149.045 123.957C148.679 124.626 148.135 125.181 147.473 125.561L139.559 137.78L115.737 149.85Z" fill="#A0616A"/>
<path id="Vector_8" d="M108.966 142.916L118.997 137.799L121.652 147.757L114.684 152.915L108.966 142.916Z" fill="#FF4A4A"/>
<path id="Vector_9" d="M86.4568 312.185L92.5217 312.185L95.407 288.819L86.4553 288.82L86.4568 312.185Z" fill="#A0616A"/>
<path id="Vector_10" d="M94.54 312.731V308.624L92.9455 308.721L86.4549 309.105L84.9527 309.197L83.8043 322.951L83.7428 323.689H88.0494L88.1878 322.956L88.8133 319.628L90.4283 322.956L90.782 323.689H102.2C102.879 323.684 103.529 323.413 104.009 322.932C104.489 322.452 104.76 321.802 104.763 321.123C105.245 318.875 95.75 314.016 94.54 312.731Z" fill="#2F2E41"/>
<path id="Vector_11" d="M14.4616 219.456L13.0477 225.348L35.1245 233.598L37.211 224.904L14.4616 219.456Z" fill="#A0616A"/>
<path id="Vector_12" d="M12.5261 227.181L16.5245 228.138L16.8015 226.567L17.941 220.173L18.2015 218.693L5.07799 214.37L4.3744 214.139L3.37028 218.321L4.05094 218.627L7.14573 220.01L3.52855 220.803L2.73313 220.976L0.0710187 232.065C-0.0832132 232.726 0.0298081 233.421 0.385563 233.999C0.741317 234.577 1.31107 234.992 1.97109 235.153C4.04739 236.145 10.9926 228.056 12.5261 227.181Z" fill="#2F2E41"/>
<path id="Vector_13" d="M95.8346 160.964L88.0278 157.319L72.4595 176.136L62.9767 178.532C62.2966 178.186 61.5339 178.034 60.7729 178.093C60.0119 178.153 59.2822 178.421 58.6643 178.869C58.0465 179.317 57.5646 179.926 57.2718 180.631C56.9791 181.335 56.8869 182.106 57.0054 182.859C57.124 183.612 57.4487 184.318 57.9436 184.898C58.4385 185.479 59.0845 185.911 59.8101 186.148C60.5357 186.385 61.3126 186.417 62.0552 186.24C62.7978 186.064 63.4771 185.685 64.018 185.148L77.9039 180.74L95.8346 160.964Z" fill="#A0616A"/>
<path id="Vector_14" d="M206.513 91.3041C204.858 91.3041 203.241 90.814 201.865 89.8957C200.489 88.9775 199.417 87.6724 198.783 86.1454C198.15 84.6184 197.984 82.9382 198.307 81.3172C198.63 79.6961 199.427 78.2071 200.597 77.0384C201.767 75.8697 203.258 75.0738 204.881 74.7514C206.504 74.4289 208.186 74.5944 209.715 75.2269C211.244 75.8594 212.551 76.9305 213.47 78.3048C214.389 79.679 214.88 81.2947 214.88 82.9474C214.878 85.163 213.995 87.2871 212.427 88.8538C210.858 90.4204 208.732 91.3016 206.513 91.3041ZM206.513 75.5498C205.048 75.5498 203.616 75.9837 202.398 76.7966C201.18 77.6094 200.231 78.7648 199.67 80.1165C199.11 81.4682 198.963 82.9557 199.249 84.3907C199.535 85.8257 200.24 87.1438 201.276 88.1784C202.312 89.2129 203.632 89.9175 205.068 90.2029C206.505 90.4884 207.994 90.3419 209.348 89.782C210.701 89.2221 211.858 88.2739 212.672 87.0574C213.486 85.8408 213.92 84.4106 213.92 82.9474C213.918 80.9862 213.137 79.1058 211.748 77.719C210.36 76.3322 208.477 75.5521 206.513 75.5498Z" fill="#E6E6E6"/>
<path id="Vector_15" d="M205.923 86.0957C205.906 86.0957 205.889 86.0952 205.872 86.0944C205.724 86.0872 205.579 86.048 205.447 85.9796C205.315 85.9111 205.199 85.8149 205.108 85.6976L203.79 84.0052C203.707 83.8984 203.645 83.7762 203.609 83.6457C203.573 83.5152 203.563 83.3789 203.58 83.2446C203.597 83.1103 203.64 82.9806 203.707 82.8629C203.774 82.7453 203.864 82.6419 203.971 82.5588L204.018 82.522C204.125 82.4388 204.247 82.3775 204.378 82.3415C204.509 82.3056 204.645 82.2958 204.78 82.3126C204.914 82.3293 205.044 82.3724 205.162 82.4394C205.28 82.5063 205.383 82.5958 205.466 82.7027C205.533 82.7881 205.617 82.8581 205.713 82.908C205.81 82.9578 205.915 82.9864 206.024 82.9916C206.132 82.9969 206.24 82.9788 206.34 82.9385C206.441 82.8982 206.532 82.8367 206.606 82.7582L209.282 79.9364C209.471 79.7383 209.73 79.6228 210.004 79.6154C210.277 79.6079 210.542 79.7092 210.741 79.8968L210.785 79.9386C210.884 80.0317 210.963 80.1432 211.018 80.2668C211.073 80.3904 211.103 80.5237 211.107 80.659C211.111 80.7943 211.088 80.929 211.039 81.0554C210.991 81.1818 210.918 81.2974 210.824 81.3956L206.672 85.7738C206.575 85.8755 206.459 85.9565 206.33 86.0118C206.202 86.0672 206.063 86.0957 205.923 86.0957Z" fill="#E6E6E6"/>
<path id="Vector_16" d="M164.746 192.479C163.091 192.479 161.473 191.989 160.097 191.071C158.721 190.152 157.649 188.847 157.016 187.32C156.383 185.793 156.217 184.113 156.54 182.492C156.863 180.871 157.659 179.382 158.829 178.213C160 177.045 161.49 176.249 163.113 175.926C164.736 175.604 166.419 175.769 167.948 176.402C169.476 177.034 170.783 178.105 171.702 179.48C172.622 180.854 173.113 182.469 173.113 184.122C173.11 186.338 172.228 188.462 170.659 190.029C169.091 191.595 166.964 192.476 164.746 192.479ZM164.746 176.725C163.281 176.725 161.849 177.159 160.631 177.971C159.413 178.784 158.463 179.94 157.903 181.291C157.342 182.643 157.196 184.13 157.481 185.565C157.767 187 158.473 188.319 159.508 189.353C160.544 190.388 161.864 191.092 163.301 191.378C164.738 191.663 166.227 191.517 167.58 190.957C168.934 190.397 170.09 189.449 170.904 188.232C171.718 187.016 172.152 185.585 172.152 184.122C172.15 182.161 171.369 180.281 169.981 178.894C168.592 177.507 166.709 176.727 164.746 176.725Z" fill="#E6E6E6"/>
<path id="Vector_17" d="M164.155 187.271C164.139 187.271 164.122 187.27 164.105 187.269C163.956 187.262 163.811 187.223 163.679 187.154C163.547 187.086 163.432 186.99 163.34 186.872L162.022 185.18C161.939 185.073 161.878 184.951 161.842 184.821C161.806 184.69 161.796 184.554 161.813 184.419C161.83 184.285 161.873 184.155 161.94 184.038C162.007 183.92 162.096 183.817 162.203 183.734L162.251 183.697C162.358 183.614 162.48 183.552 162.611 183.516C162.741 183.48 162.878 183.471 163.012 183.487C163.147 183.504 163.277 183.547 163.395 183.614C163.512 183.681 163.616 183.771 163.699 183.878C163.766 183.963 163.85 184.033 163.946 184.083C164.042 184.133 164.148 184.161 164.256 184.166C164.364 184.172 164.472 184.154 164.573 184.113C164.674 184.073 164.764 184.011 164.839 183.933L167.515 181.111C167.703 180.913 167.963 180.798 168.236 180.79C168.51 180.783 168.775 180.884 168.974 181.072L169.018 181.113C169.116 181.206 169.195 181.318 169.25 181.442C169.306 181.565 169.336 181.698 169.34 181.834C169.343 181.969 169.32 182.104 169.272 182.23C169.223 182.357 169.15 182.472 169.057 182.57L164.904 186.949C164.808 187.05 164.692 187.131 164.563 187.187C164.434 187.242 164.295 187.271 164.155 187.271Z" fill="#E6E6E6"/>
<path id="Vector_18" d="M73.0493 79.796C71.3945 79.796 69.7769 79.3059 68.401 78.3877C67.0251 77.4695 65.9527 76.1643 65.3194 74.6373C64.6861 73.1104 64.5204 71.4301 64.8433 69.8091C65.1661 68.1881 65.963 66.6991 67.1331 65.5304C68.3032 64.3617 69.794 63.5658 71.417 63.2433C73.04 62.9209 74.7223 63.0864 76.2512 63.7189C77.78 64.3514 79.0867 65.4225 80.0061 66.7967C80.9254 68.1709 81.4161 69.7866 81.4161 71.4394C81.4137 73.655 80.5314 75.7791 78.9628 77.3457C77.3943 78.9123 75.2676 79.7936 73.0493 79.796ZM73.0493 64.0418C71.5844 64.0418 70.1524 64.4756 68.9344 65.2885C67.7164 66.1014 66.7671 67.2567 66.2065 68.6085C65.6459 69.9602 65.4992 71.4476 65.785 72.8826C66.0708 74.3176 66.7762 75.6357 67.812 76.6703C68.8479 77.7049 70.1676 78.4094 71.6044 78.6949C73.0411 78.9803 74.5303 78.8338 75.8837 78.2739C77.2371 77.714 78.3939 76.7658 79.2077 75.5493C80.0216 74.3328 80.456 72.9025 80.456 71.4394C80.4537 69.4781 79.6727 67.5978 78.2842 66.2109C76.8956 64.8241 75.013 64.044 73.0493 64.0418Z" fill="#E6E6E6"/>
<path id="Vector_19" d="M72.4588 74.5877C72.442 74.5877 72.4252 74.5871 72.4083 74.5863C72.2598 74.5791 72.1146 74.54 71.9826 74.4715C71.8506 74.403 71.7351 74.3068 71.6438 74.1896L70.3258 72.4971C70.2426 72.3903 70.1812 72.2682 70.1453 72.1377C70.1093 72.0072 70.0994 71.8709 70.1162 71.7365C70.133 71.6022 70.1761 71.4725 70.2431 71.3549C70.3101 71.2372 70.3997 71.1339 70.5067 71.0508L70.5541 71.0139C70.661 70.9307 70.7834 70.8694 70.9141 70.8335C71.0448 70.7975 71.1813 70.7877 71.3158 70.8045C71.4503 70.8213 71.5802 70.8644 71.698 70.9313C71.8159 70.9983 71.9193 71.0878 72.0025 71.1947C72.0691 71.2801 72.1533 71.3501 72.2495 71.3999C72.3456 71.4498 72.4514 71.4783 72.5596 71.4836C72.6679 71.4888 72.7759 71.4707 72.8765 71.4304C72.977 71.3901 73.0677 71.3286 73.1423 71.2501L75.8183 68.4284C76.0067 68.2302 76.2661 68.1147 76.5396 68.1073C76.8131 68.0999 77.0784 68.2011 77.2773 68.3888L77.3211 68.4305C77.4195 68.5236 77.4986 68.6351 77.5539 68.7587C77.6091 68.8823 77.6394 69.0156 77.6431 69.1509C77.6467 69.2862 77.6236 69.4209 77.5752 69.5473C77.5267 69.6737 77.4537 69.7893 77.3605 69.8876L73.2076 74.2657C73.1113 74.3674 72.9952 74.4484 72.8664 74.5038C72.7377 74.5591 72.5989 74.5877 72.4588 74.5877Z" fill="#E6E6E6"/>
<path id="Vector_20" d="M140.034 223.55C120.632 223.55 98.335 202.046 78.6074 212.263C18.8775 243.197 27.0996 191.434 9.9397 172.182L10.5031 171.053C29.4371 188.01 53.0768 201.806 78.8668 210.95C102.173 219.214 125.654 223.043 146.762 222.033L146.799 223.389C144.57 223.497 142.315 223.55 140.034 223.55Z" fill="#F2F2F2"/>
<path id="Vector_21" d="M113.42 78.1602C115.66 78.1602 117.475 75.7284 117.475 72.7287C117.475 69.7289 115.66 67.2971 113.42 67.2971C111.18 67.2971 109.364 69.7289 109.364 72.7287C109.364 75.7284 111.18 78.1602 113.42 78.1602Z" fill="#E6E6E6"/>
<path id="Vector_22" d="M160.26 162.893C158.406 164.127 156.509 161.19 158.398 160.011C160.252 158.777 162.15 161.714 160.26 162.893Z" fill="#E6E6E6"/>
<path id="Vector_23" d="M149.588 64.0278C152.505 64.0278 154.869 61.6663 154.869 58.7533C154.869 55.8402 152.505 53.4788 149.588 53.4788C146.672 53.4788 144.307 55.8402 144.307 58.7533C144.307 61.6663 146.672 64.0278 149.588 64.0278Z" fill="#2F2E41"/>
<path id="Vector_24" opacity="0.3" d="M168.059 87.6572L198.109 0L165.112 86.6079C164.949 86.8135 164.837 87.055 164.786 87.3123C164.735 87.5696 164.746 87.8354 164.819 88.0876C164.891 88.3398 165.022 88.5712 165.202 88.7625C165.382 88.9538 165.605 89.0995 165.852 89.1876C166.1 89.2757 166.364 89.3037 166.625 89.2691C166.885 89.2345 167.134 89.1384 167.349 88.9888C167.565 88.8392 167.742 88.6403 167.865 88.4088C167.989 88.1772 168.055 87.9195 168.059 87.6572Z" fill="#F0F0F0"/>
<path id="Vector_25" d="M137.727 194.449C140.565 194.449 142.865 192.152 142.865 189.317C142.865 186.483 140.565 184.186 137.727 184.186C134.89 184.186 132.589 186.483 132.589 189.317C132.589 192.152 134.89 194.449 137.727 194.449Z" fill="#F2F2F2"/>
<path id="Vector_26" d="M87.9641 191.275C87.9641 191.275 75.1551 199.605 78.542 205.141C78.6589 205.332 63.2418 225.669 63.2418 225.669L34.1381 223.824L33.1127 233.553L59.0229 241.048C59.0229 241.048 65.3615 245.699 70.2583 240.575C75.1551 235.45 91.4657 219.757 91.4657 219.757L92.2524 251.441L84.0646 295.345L96.29 294.571L108.189 250.524L112.581 200.63L87.9641 191.275Z" fill="#2F2E41"/>
<path id="Vector_27" d="M97.0879 141.278L91.7015 145.355L85.5621 158.442L91.4657 166.45C91.4657 166.45 96.4316 175.046 88.4829 183.371C80.5342 191.695 74.4304 200.586 80.7926 200.269C87.1547 199.951 112.922 213.041 113.092 202.317C113.261 191.593 113.605 183.371 113.605 183.371L120.36 166.257C120.36 166.257 124.385 156.048 121.559 152.992C118.733 149.935 114.95 146.03 114.95 146.03L108.069 139.158H101.856L97.0879 141.278Z" fill="#FF4A4A"/>
<path id="Vector_28" d="M107.143 116.132C119.227 123 109.307 141.121 96.9973 134.668C84.9137 127.801 94.8341 109.68 107.143 116.132Z" fill="#A0616A"/>
<path id="Vector_29" d="M113.605 119.94C112.758 121.04 110.989 120.524 107.525 121.309C107.532 120.136 107.397 118.967 107.121 117.827C106.863 119.239 106.298 120.576 105.466 121.746C102.458 122.079 106.145 131.206 104.605 137.917C102.621 123.76 98.447 127.469 100.556 130.277C101.905 132.075 101.006 137.468 96.9559 134.771C90.274 137.943 80.757 122.187 91.3048 114.798C91.1163 110.804 95.5658 110.173 98.3057 111.401C104.955 106.454 112.552 112.793 113.605 119.94Z" fill="#2F2E41"/>
<path id="Vector_30" d="M82.5998 109.61C79.9095 126.131 65.4894 106.571 58.7092 122.83C56.5774 128.718 60.235 132.93 62.5486 137.817C63.0767 141.833 57.8454 143.871 57.2974 147.568C57.1449 156.044 70.8358 155.525 74.6632 150.177C78.5959 144.58 73.8997 137.069 76.2635 131.06C79.5858 122.718 93.0971 122.656 94.2742 112.951C91.9946 109.709 85.8648 105.995 82.5998 109.61Z" fill="#2F2E41"/>
<path id="Vector_31" d="M93.4983 111.224C93.4103 111.261 93.3223 111.298 93.2435 111.34H93.2389C93.1648 111.377 93.0907 111.414 93.0166 111.456C93.0073 111.46 93.0027 111.465 92.9934 111.469C92.8961 111.377 92.7989 111.284 92.6969 111.192C92.6706 111.343 92.6769 111.497 92.7155 111.645L92.7294 111.701C92.822 111.798 92.9193 111.89 93.0212 111.988C93.1139 111.918 93.2019 111.844 93.2945 111.775C93.3501 111.729 93.4057 111.682 93.4659 111.636C93.4752 111.516 93.4891 111.377 93.5029 111.224L93.4983 111.224ZM96.2869 106.079C94.2209 105.607 93.5539 108.305 93.3547 109.605C92.6043 104.886 89.4821 106.371 90.5615 109.591C90.9055 110.544 91.4469 111.415 92.1503 112.145C92.2476 112.256 92.3541 112.367 92.4653 112.478C92.3402 113.126 92.9702 112.959 93.8226 112.362C94.4519 111.915 95.034 111.405 95.5597 110.84C97.2597 109.059 98.5845 106.676 96.2869 106.079ZM96.3518 108.735C95.7144 109.556 94.9993 110.314 94.2163 110.998C93.9708 111.22 93.7207 111.432 93.4659 111.636C93.4613 111.678 93.4613 111.715 93.4566 111.747C93.4387 111.792 93.417 111.835 93.3918 111.877C93.1324 112.344 92.8405 112.089 92.7294 111.701C92.7201 111.687 92.7062 111.673 92.6969 111.659C92.3268 111.277 92.0047 110.851 91.7381 110.391C89.8249 107.079 92.9054 104.826 92.7525 111.011C92.7243 111.068 92.7056 111.129 92.6969 111.192C92.6706 111.343 92.6769 111.497 92.7155 111.645L92.7294 111.701C92.822 111.798 92.9193 111.89 93.0212 111.988C93.1139 111.918 93.2019 111.844 93.2945 111.775C93.3501 111.729 93.4057 111.682 93.4659 111.636C93.4752 111.516 93.4891 111.377 93.5029 111.224V111.22C93.6234 109.98 93.9523 107.75 94.5591 107.144C95.8932 106.121 97.621 107.227 96.3518 108.735ZM93.4983 111.224C93.4103 111.261 93.3223 111.298 93.2435 111.34H93.2389C93.1648 111.377 93.0907 111.414 93.0166 111.456C93.0073 111.46 93.0027 111.465 92.9934 111.469C92.8961 111.377 92.7989 111.284 92.6969 111.192C92.6706 111.343 92.6769 111.497 92.7155 111.645L92.7294 111.701C92.822 111.798 92.9193 111.89 93.0212 111.988C93.1139 111.918 93.2019 111.844 93.2945 111.775C93.3501 111.729 93.4057 111.682 93.4659 111.636C93.4752 111.516 93.4891 111.377 93.5029 111.224L93.4983 111.224Z" fill="#2F2E41"/>
<path id="Vector_32" d="M205.187 202.31L200.724 213.935L179.788 255.182L198.185 303.164L207.679 300.661L199.853 255.182L222.304 227.936L248.966 245.998C248.966 245.998 260.791 255.218 265.289 246.477C269.788 237.737 298.895 219.146 298.895 219.146L291.694 211.474L258.175 227.141L235.04 194.617L205.187 202.31Z" fill="#2F2E41"/>
<path id="Vector_33" d="M227.706 147.477L220.36 139.594L207.758 137.862L192.316 148.659L192.472 160.61L200.105 188.77C200.105 188.77 197.197 209.002 205.319 208.8C213.44 208.597 217.866 204.553 221.174 205.376C224.482 206.199 238.542 209.703 239.434 206.033C240.325 202.363 245.061 204.991 244.853 201.519C244.645 198.048 232.031 173.024 232.031 173.024L235.167 147.998L227.706 147.477Z" fill="#FF4A4A"/>
<path id="Vector_34" d="M274.222 111.188C274.288 111.842 274.21 112.502 273.992 113.122C273.775 113.742 273.424 114.307 272.964 114.778C272.505 115.248 271.947 115.611 271.332 115.843C270.716 116.075 270.057 116.169 269.401 116.119L252.507 148.21L247.971 141.256L265.239 110.968C265.397 109.873 265.951 108.874 266.797 108.16C267.643 107.445 268.721 107.066 269.829 107.093C270.936 107.12 271.995 107.552 272.805 108.307C273.614 109.061 274.119 110.087 274.222 111.188Z" fill="#FFB6B6"/>
<path id="Vector_35" d="M221.037 153.444C221.037 153.444 220.366 159.152 226.801 160.566C233.235 161.979 251.061 151.806 253.983 150.252C254.898 149.765 256.14 147.38 257.414 144.334C257.986 142.966 258.564 141.465 259.123 139.942C259.446 139.061 260.993 138.82 261.298 137.947C261.6 137.077 260.661 135.575 260.935 134.756C262.236 130.868 263.159 127.784 263.159 127.784L258.894 119.783C252.93 122.932 249.871 129.869 247.621 137.861L221.037 153.444Z" fill="#FF4A4A"/>
<path id="Vector_36" d="M145.893 118.558C145.994 119.207 146.235 119.827 146.601 120.373C146.967 120.919 147.448 121.378 148.011 121.718C148.574 122.059 149.204 122.272 149.858 122.342C150.512 122.412 151.174 122.339 151.797 122.126L176.194 148.974L178.843 141.107L154.535 116.099C154.109 115.079 153.322 114.25 152.324 113.77C151.326 113.29 150.186 113.192 149.121 113.495C148.056 113.798 147.139 114.48 146.544 115.414C145.949 116.347 145.718 117.465 145.893 118.558Z" fill="#FFB6B6"/>
<path id="Vector_37" d="M207.975 146.175C207.975 146.175 210.054 151.534 204.178 154.511C198.303 157.487 178.495 152.093 175.277 151.319C174.269 151.077 172.469 149.078 170.472 146.447C169.576 145.266 168.64 143.957 167.717 142.622C167.184 141.85 165.625 142.004 165.112 141.234C164.601 140.468 165.134 138.779 164.663 138.054C162.429 134.616 160.763 131.86 160.763 131.86L162.888 123.048C169.451 124.606 174.151 130.558 178.331 137.733L207.975 146.175Z" fill="#FF4A4A"/>
<path id="Vector_38" d="M214.31 135.857C220.932 135.857 226.301 130.495 226.301 123.88C226.301 117.266 220.932 111.904 214.31 111.904C207.688 111.904 202.319 117.266 202.319 123.88C202.319 130.495 207.688 135.857 214.31 135.857Z" fill="#FFB6B6"/>
<path id="Vector_39" d="M227.997 117.023C226.736 115.074 224.369 113.775 222.075 114.14C221.861 112.678 221.25 111.302 220.308 110.162C219.365 109.023 218.128 108.163 216.73 107.677C215.333 107.191 213.829 107.098 212.381 107.406C210.934 107.715 209.6 108.415 208.523 109.429C208.169 109.18 207.756 109.026 207.325 108.983C206.895 108.94 206.46 109.009 206.063 109.183C205.274 109.541 204.587 110.092 204.065 110.785C202.748 112.425 201.902 114.39 201.615 116.473C201.328 118.555 201.612 120.677 202.437 122.611C202.156 121.593 203.178 120.635 204.21 120.406C205.242 120.178 206.325 120.394 207.372 120.245C208.713 120.054 209.919 119.277 211.263 119.102C212.403 119.028 213.546 119.175 214.629 119.534C215.713 119.893 216.854 120.046 217.994 119.985C219.125 119.851 220.582 124.132 220.563 127.147C220.559 127.719 220.677 128.452 221.236 128.573C221.924 128.723 222.323 127.774 222.979 127.515C223.281 127.429 223.604 127.463 223.882 127.61C224.159 127.757 224.369 128.006 224.466 128.305C224.548 128.608 224.557 128.927 224.491 129.234C224.426 129.542 224.288 129.829 224.088 130.073C223.685 130.555 223.207 130.969 222.672 131.3L222.942 131.524C223.198 131.794 223.541 131.967 223.911 132.013C224.28 132.059 224.655 131.975 224.969 131.775C225.588 131.357 226.089 130.787 226.425 130.12C227.69 128.167 228.594 126.002 229.095 123.73C229.517 121.449 229.259 118.972 227.997 117.023Z" fill="#2F2E41"/>
<path id="Vector_40" d="M316.704 164.258C301.238 175.957 270.464 172.261 260.914 192.302C232 252.981 207.263 206.758 181.946 201.76L181.713 200.52C207.057 202.62 234.241 199.362 260.328 191.099C283.902 183.633 304.935 172.526 321.151 158.991L322 160.05C320.288 161.48 318.523 162.883 316.704 164.258Z" fill="#F2F2F2"/>
<path id="Vector_41" d="M251.314 323.182C250.945 324.272 40.6321 324.272 40.2346 323.185C40.6025 322.093 250.916 322.093 251.314 323.182Z" fill="#CCCCCC"/>
</g>
<defs>
<clipPath id="clip0_73_1274">
<rect width="322" height="324" fill="white"/>
</clipPath>
</defs>
</svg>
