<svg width="324" height="252" viewBox="0 0 324 252" fill="none" xmlns="http://www.w3.org/2000/svg">
<g id="undraw_adventure_map_hnin 1" clip-path="url(#clip0_73_998)">
<path id="Path 482" d="M204.977 251.359C204.977 251.359 200.01 239.114 214.909 229.93L204.977 251.359Z" fill="#E6E6E6"/>
<path id="Path 483" d="M198.869 251.136C198.869 251.136 197.354 242.408 185.629 242.483L198.869 251.136Z" fill="#E6E6E6"/>
<path id="Path 482_2" d="M310.879 251.359C310.879 251.359 304.318 235.181 324 223.048L310.879 251.359Z" fill="#E6E6E6"/>
<path id="Path 483_2" d="M302.81 251.065C302.81 251.065 300.809 239.534 285.318 239.633L302.81 251.065Z" fill="#E6E6E6"/>
<path id="Vector" d="M188.169 70.0485L181.689 66.6009L182.174 66.3427L188.653 69.7907L188.169 70.0485Z" fill="#CBCBCB"/>
<path id="Vector_2" d="M182.517 70.0485L182.032 69.7907L188.511 66.3427L188.996 66.6009L182.517 70.0485Z" fill="#CBCBCB"/>
<path id="Vector_3" d="M134.292 43.3245L133.98 43.9358L135.81 44.8754L136.123 44.2641L134.292 43.3245Z" fill="#CBCBCB"/>
<path id="Vector_4" d="M172.242 63.5767L168.598 61.7066L168.911 61.0953L172.554 62.9654L172.242 63.5767ZM164.955 59.8364L161.312 57.9662L161.625 57.3549L165.268 59.2252L164.955 59.8364ZM157.669 56.096L154.026 54.2259L154.338 53.6146L157.982 55.4847L157.669 56.096ZM150.383 52.3558L146.739 50.4857L147.052 49.8744L150.695 51.7445L150.383 52.3558ZM143.096 48.6156L139.453 46.7455L139.766 46.1342L143.409 48.0043L143.096 48.6156Z" fill="#CBCBCB"/>
<path id="Vector_5" d="M176.197 64.8355L175.885 65.4468L177.715 66.3864L178.028 65.7751L176.197 64.8355Z" fill="#CBCBCB"/>
<path id="Vector_6" d="M37.9952 89.3003C37.9952 89.5148 37.9882 89.7275 37.9743 89.9385C37.8965 91.155 37.5897 92.3458 37.0701 93.4481C37.0661 93.4575 37.0614 93.4663 37.0574 93.475C37.0332 93.5261 37.0083 93.5772 36.9828 93.6277C36.8283 93.9394 36.6569 94.2425 36.4693 94.5355C35.6125 95.8806 34.4382 96.9936 33.0501 97.7761C31.662 98.5587 30.1029 98.9866 28.5104 99.0222L28.6065 104.553L29.8584 103.892L30.082 104.318L28.6159 105.091L28.7951 115.363L28.7971 115.5L27.8291 115.716L27.8311 115.578L28.1359 99.0229C26.8541 99.0045 25.5888 98.7312 24.4134 98.2188C23.2379 97.7065 22.1758 96.9654 21.2887 96.0385C21.2276 95.9753 21.1672 95.91 21.1081 95.8455L21.1014 95.8381C20.3622 95.0306 19.7644 94.1039 19.3332 93.0971C19.3426 93.1078 19.3527 93.1179 19.3621 93.1287C18.3875 90.8456 18.3214 88.2756 19.1773 85.9453C20.0333 83.615 21.7464 81.7009 23.9658 80.5952C23.9993 80.5783 24.0336 80.5622 24.0672 80.5454C26.2625 79.4861 28.775 79.2917 31.1067 80.0008C33.4383 80.7099 35.4189 82.2707 36.6559 84.3738C36.715 84.4733 36.7721 84.5748 36.8271 84.677C37.5955 86.0963 37.9971 87.6857 37.9952 89.3003Z" fill="#E5E5E5"/>
<path id="Vector_7" d="M36.6884 93.4802C43.7155 93.4802 49.4121 87.7737 49.4121 80.7343C49.4121 73.6948 43.7155 67.9883 36.6884 67.9883C29.6614 67.9883 23.9648 73.6948 23.9648 80.7343C23.9648 87.7737 29.6614 93.4802 36.6884 93.4802Z" fill="#E5E5E5"/>
<path id="Vector_8" opacity="0.2" d="M27.2937 72.2209C26.1069 75.002 25.9459 78.1153 26.8395 81.0043C27.7331 83.8934 29.6231 86.37 32.1717 87.9916C34.7203 89.6132 37.7615 90.2742 40.7518 89.8564C43.7421 89.4386 46.4867 87.9693 48.4951 85.7109C47.7701 87.41 46.685 88.9309 45.315 90.1682C43.9449 91.4056 42.3228 92.3297 40.5608 92.8766C38.7989 93.4236 36.9393 93.5802 35.1109 93.3357C33.2825 93.0913 31.5291 92.4515 29.972 91.4608C28.415 90.4701 27.0915 89.1521 26.0934 87.5981C25.0953 86.0442 24.4464 84.2914 24.1917 82.4613C23.9369 80.6312 24.0824 78.7674 24.618 76.9992C25.1536 75.231 26.0666 73.6006 27.2937 72.2209Z" fill="black"/>
<path id="Vector_9" d="M37.3767 116.242L36.0773 115.877L36.08 115.737L36.4694 94.5355L36.4889 93.4783L36.4893 93.4475L36.5574 89.7432L36.6559 84.3743V84.3735L36.7229 80.7344H36.7587L36.8273 84.677L36.9164 89.8087L36.9803 93.4498V93.4768L36.983 93.6269V93.6277L37.1065 100.725L37.1193 101.431L37.3744 116.101L37.3767 116.242Z" fill="#3F3D56"/>
<path id="Vector_10" d="M38.747 99.8601L36.6437 100.969L36.9369 101.527L39.0401 100.418L38.747 99.8601Z" fill="#3F3D56"/>
<path id="Vector_11" d="M201.625 39.4838C185.565 38.5326 169.457 38.7807 153.435 40.2258C145.712 40.9251 137.866 41.6804 130.287 43.3679C124.181 44.7272 117.095 47.0245 113.291 52.3753C112.494 53.4534 111.957 54.7016 111.722 56.0221C111.487 57.3427 111.56 58.6999 111.936 59.9874C112.843 63.0377 115.099 65.5767 117.502 67.5654C123.033 72.1424 129.895 74.8059 136.025 78.4422C147.216 85.0814 157.459 94.0302 164.033 105.398C166.926 110.4 169.678 117.052 166.457 122.564C163.301 127.963 156.256 129.824 150.511 130.701C143.31 131.801 135.892 131.503 128.661 130.887C120.733 130.146 112.849 128.989 105.042 127.421C89.7485 124.48 74.5937 120.737 59.0872 119.036C51.3121 118.119 43.4714 117.892 35.6565 118.357C28.5987 118.834 21.4805 119.952 14.8502 122.501C9.74099 124.466 4.29485 127.438 1.53506 132.395C-1.12525 137.173 -0.0876474 142.683 2.8091 147.092C6.29448 152.396 11.7294 156.031 17.38 158.688C23.8137 161.712 30.6951 163.673 37.5853 165.341C41.0798 166.186 44.5933 166.951 48.107 167.711C48.84 167.87 49.1532 166.742 48.4176 166.583C41.3318 165.049 34.2255 163.51 27.3157 161.29C20.9214 159.235 14.3777 156.603 9.14139 152.289C4.90516 148.798 0.877391 143.7 1.12743 137.904C1.37949 132.06 6.27363 127.98 11.0705 125.469C17.0653 122.331 23.8763 120.802 30.5502 120.003C38.192 119.15 45.8985 119.045 53.5606 119.69C69.0306 120.869 84.1549 124.399 99.3227 127.478C114.058 130.469 129.253 133.239 144.354 132.472C150.339 132.168 156.752 131.309 162.037 128.282C164.456 126.897 166.638 124.943 167.868 122.4C168.976 119.98 169.326 117.281 168.873 114.658C168.016 108.897 164.6 103.554 161.191 98.9648C157.455 93.9872 153.12 89.4896 148.286 85.5736C142.981 81.2964 137.26 77.5633 131.211 74.4305C128.003 72.7385 124.749 71.1115 121.692 69.1518C118.761 67.2727 115.869 65.0118 114.079 61.9614C112.531 59.3231 112.247 56.312 113.859 53.6361C115.49 50.9297 118.301 49.0422 121.072 47.6628C127.749 44.3395 135.511 43.45 142.816 42.5384C158.501 40.5879 174.309 39.7984 190.11 40.1762C193.951 40.2667 197.789 40.426 201.625 40.654C202.376 40.6983 202.373 39.5279 201.625 39.4838Z" fill="black"/>
<path id="Vector_12" d="M191.437 1.9708L193.862 0.0272195C191.978 -0.181059 191.204 0.848512 190.887 1.66342C189.415 1.05102 187.812 1.8536 187.812 1.8536L192.665 3.61872C192.421 2.96356 191.994 2.39191 191.437 1.9708Z" fill="#3F3D56"/>
<path id="Vector_13" d="M179.664 8.12387L182.09 6.18029C180.205 5.97202 179.431 7.00158 179.114 7.81649C177.642 7.20409 176.039 8.00668 176.039 8.00668L180.893 9.77179C180.648 9.11664 180.222 8.54499 179.664 8.12387Z" fill="#3F3D56"/>
<path id="Vector_14" d="M191.437 17.8662L193.862 15.9226C191.978 15.7143 191.204 16.7439 190.887 17.5588C189.415 16.9464 187.812 17.749 187.812 17.749L192.665 19.5141C192.421 18.8589 191.994 18.2873 191.437 17.8662Z" fill="#3F3D56"/>
<g id="Group 27">
<path id="Ellipse 7" d="M155.07 20.7457C159.107 20.7457 162.379 17.4678 162.379 13.4242C162.379 9.38071 159.107 6.10278 155.07 6.10278C151.034 6.10278 147.762 9.38071 147.762 13.4242C147.762 17.4678 151.034 20.7457 155.07 20.7457Z" fill="#2F2E41"/>
<path id="Path 63" d="M177.989 35.9851H142.135C142.09 35.9856 142.045 35.9821 142.001 35.9744L158.958 6.55197C159.062 6.36869 159.212 6.21621 159.394 6.11012C159.575 6.00402 159.781 5.94812 159.992 5.94812C160.202 5.94812 160.408 6.00402 160.59 6.11012C160.771 6.21621 160.921 6.36869 161.025 6.55197L172.405 26.2961L172.95 27.2407L177.989 35.9851Z" fill="#FF4A4A"/>
<path id="Path 65" d="M197.951 35.9854H166.94L172.949 27.2417L173.382 26.6116L181.212 15.2171C181.35 15.0427 181.524 14.8995 181.721 14.7968C181.919 14.6941 182.135 14.6341 182.357 14.6209C182.579 14.6076 182.802 14.6413 183.01 14.7197C183.218 14.7982 183.407 14.9197 183.565 15.0763C183.606 15.1208 183.644 15.1678 183.678 15.2171L197.951 35.9854Z" fill="#FF4A4A"/>
</g>
<path id="Vector_15" d="M146.798 103.466C150.196 105.168 152.265 107.415 152.265 109.88C152.265 115.19 142.673 119.495 130.842 119.495C125.698 119.495 120.978 118.68 117.285 117.324C121.208 119.288 126.902 120.525 133.241 120.525C145.073 120.525 154.664 116.22 154.664 110.91C154.664 107.909 151.599 105.229 146.798 103.466Z" fill="#F1F1F1"/>
<path id="Vector_16" d="M154.357 107.114C158.192 109.034 160.526 111.57 160.526 114.351C160.526 120.343 149.703 125.2 136.353 125.2C130.548 125.2 125.223 124.281 121.056 122.751C125.482 124.967 131.907 126.362 139.06 126.362C152.411 126.362 163.234 121.505 163.234 115.513C163.234 112.127 159.775 109.103 154.357 107.114Z" fill="#F1F1F1"/>
<path id="Vector_17" d="M143.905 105.073C146.299 106.272 147.757 107.855 147.757 109.591C147.757 113.332 140.999 116.365 132.663 116.365C129.416 116.407 126.185 115.89 123.112 114.836C125.876 116.22 129.887 117.091 134.354 117.091C142.69 117.091 149.447 114.058 149.447 110.317C149.447 108.203 147.287 106.315 143.905 105.073Z" fill="#F1F1F1"/>
<path id="Vector_18" d="M110.263 104.386C110.263 104.386 110.789 112.09 125.871 112.09C140.954 112.09 145.456 104.386 145.456 104.386H110.263Z" fill="#3F3D56"/>
<path id="Vector_19" d="M131.671 84.1732C129.493 82.5162 126.761 81.7674 124.044 82.0835C126.472 82.6697 128.615 84.0935 130.099 86.1051C131.583 88.1168 132.312 90.5876 132.158 93.084C132.005 95.5805 130.979 97.943 129.26 99.757C127.541 101.571 125.239 102.72 122.758 103.004C125.131 103.578 127.629 103.316 129.831 102.262C132.034 101.208 133.807 99.4262 134.853 97.2167C135.899 95.0071 136.153 92.5043 135.574 90.1289C134.994 87.7535 133.616 85.6504 131.671 84.1732Z" fill="#3F3D56"/>
<path id="Vector_20" d="M126.728 80.6931H125.7V105.214H126.728V80.6931Z" fill="#3F3D56"/>
<path id="Vector_21" d="M194.309 62.4745L194.304 62.465L194.29 61.8661L197.511 57.1805L194.294 61.4178L194.282 61.5444L194.172 56.7552L196.954 51.8974L194.164 55.9138L194.193 45.9919L194.193 45.9589L194.192 45.9914L194.007 53.8112L191.471 50.6348L193.999 54.4849L193.944 58.7687L191.61 54.5878L193.935 59.3985L193.904 61.7805L193.819 68.3798L193.813 68.8729C194.028 68.8745 194.241 68.871 194.451 68.8622L194.305 62.5234L194.309 62.4745Z" fill="#CBCBCB"/>
<path id="Vector_22" d="M178.884 64.5347L178.879 64.5252L178.865 63.9263L182.086 59.2407L178.869 63.4779L178.857 63.6046L178.747 58.8154L181.53 53.9576L178.739 57.974L178.768 48.0521L178.768 48.019L178.767 48.0515L178.582 55.8714L176.047 52.695L178.574 56.545L178.519 60.8289L176.185 56.648L178.51 61.4587L178.479 63.8407L178.394 70.44L178.388 70.9331C178.603 70.9347 178.816 70.9311 179.026 70.9223L178.88 64.5836L178.884 64.5347Z" fill="#CBCBCB"/>
<path id="Vector_23" d="M186.425 58.0106L186.42 58.0012L186.406 57.4022L189.627 52.7167L186.41 56.9539L186.398 57.0805L186.288 52.2913L189.071 47.4335L186.28 51.45L186.309 41.528L186.309 41.495L186.308 41.5275L186.124 49.3473L183.588 46.1709L186.115 50.021L186.06 54.3048L183.726 50.124L186.051 54.9346L186.02 57.3166L185.935 63.9159L185.929 64.409C186.144 64.4107 186.357 64.4071 186.567 64.3983L186.421 58.0595L186.425 58.0106Z" fill="#CBCBCB"/>
<path id="Vector_24" d="M59.0306 172.031C61.3023 172.031 63.1439 170.186 63.1439 167.91C63.1439 165.635 61.3023 163.79 59.0306 163.79C56.7589 163.79 54.9173 165.635 54.9173 167.91C54.9173 170.186 56.7589 172.031 59.0306 172.031Z" fill="#FF4A4A"/>
<path id="Vector_25" d="M278.583 243.971L274.775 245.389L267.506 231.349L273.126 229.258L278.583 243.971Z" fill="#FFB7B7"/>
<path id="Vector_26" d="M280.926 247.308L268.647 251.878L268.59 251.722C268.119 250.452 268.171 249.047 268.734 247.816C269.297 246.584 270.325 245.627 271.593 245.156L279.093 242.364L280.926 247.308Z" fill="#2F2E41"/>
<path id="Vector_27" d="M241.108 247.933L237.045 247.933L235.113 232.236L241.109 232.236L241.108 247.933Z" fill="#FFB7B7"/>
<path id="Vector_28" d="M241.813 251.878L228.714 251.877V251.711C228.714 250.357 229.251 249.058 230.207 248.1C231.163 247.142 232.46 246.604 233.812 246.604L241.813 246.604L241.813 251.878Z" fill="#2F2E41"/>
<path id="Vector_29" d="M259.707 139.07L258.381 136.414L247.115 142.057L247.447 144.381L245.293 147.202C245.293 147.202 241.648 149.194 242.31 155.833L242.973 162.14L243.802 170.272L238.003 190.354L235.021 216.91L232.867 238.32L243.305 237.822L252.914 202.968L269.813 240.477L281.411 237.49L265.505 200.313L263.517 184.711C263.517 184.711 264.843 176.413 258.547 170.77L259.541 167.783V164.101L262.855 146.539L259.707 139.07Z" fill="#2F2E41"/>
<path id="Vector_30" opacity="0.2" d="M260.016 177.024L252.727 202.915L253.101 203.021L260.391 177.13L260.016 177.024Z" fill="black"/>
<path id="Vector_31" d="M259.375 170.272H243.139V171.932H259.375V170.272Z" fill="#3F3D56"/>
<path id="Vector_32" d="M243.139 172.928C243.505 172.928 243.802 172.185 243.802 171.268C243.802 170.351 243.505 169.608 243.139 169.608C242.773 169.608 242.476 170.351 242.476 171.268C242.476 172.185 242.773 172.928 243.139 172.928Z" fill="#3F3D56"/>
<path id="Vector_33" d="M254.697 134.777C258.978 132.433 260.551 127.057 258.211 122.769C255.871 118.482 250.505 116.906 246.224 119.25C241.944 121.594 240.371 126.97 242.711 131.257C245.051 135.545 250.417 137.121 254.697 134.777Z" fill="#FFB7B7"/>
<path id="Vector_34" d="M263.977 123.855C268.292 123.855 271.79 120.35 271.79 116.027C271.79 111.704 268.292 108.2 263.977 108.2C259.661 108.2 256.163 111.704 256.163 116.027C256.163 120.35 259.661 123.855 263.977 123.855Z" fill="#2F2E41"/>
<path id="Vector_35" d="M273.893 115.189C274.201 116.226 274.291 117.316 274.157 118.39C274.024 119.463 273.67 120.498 273.117 121.427C272.564 122.357 271.825 123.162 270.946 123.791C270.067 124.42 269.068 124.86 268.011 125.083C266.954 125.305 265.862 125.306 264.805 125.085C263.747 124.863 262.747 124.425 261.868 123.797C260.988 123.168 260.248 122.364 259.694 121.435C259.14 120.506 258.785 119.472 258.65 118.399C259.21 120.282 260.456 121.885 262.141 122.89C263.826 123.896 265.827 124.229 267.747 123.825C269.666 123.421 271.364 122.308 272.502 120.708C273.641 119.108 274.137 117.138 273.893 115.189Z" fill="#2F2E41"/>
<path id="Vector_36" d="M243.023 124.557C242.794 126.58 243.237 128.623 244.284 130.368C245.331 132.113 246.924 133.464 248.815 134.211C250.706 134.957 252.79 135.058 254.745 134.498C256.699 133.938 258.414 132.748 259.625 131.112C260.835 129.476 261.473 127.486 261.44 125.45C261.407 123.414 260.704 121.445 259.441 119.85C258.178 118.254 256.425 117.121 254.453 116.625C252.482 116.129 250.402 116.298 248.536 117.106C246.993 115.86 245.08 116.246 243.525 117.562C241.766 119.049 241.244 120.071 239.88 122.518C241.221 122.706 241.682 124.368 243.023 124.557Z" fill="#2F2E41"/>
<path id="Vector_37" d="M275.49 151.165C275.391 153.788 275.195 158.949 275.195 159.212C275.195 159.49 271.289 167.592 269.602 171.078V171.08C269.482 171.326 269.374 171.549 269.279 171.745C269.148 172.016 268.943 172.243 268.687 172.4C268.432 172.558 268.137 172.638 267.837 172.633L260.462 172.5C260.057 172.493 259.67 172.33 259.382 172.044C259.094 171.758 258.928 171.371 258.918 170.965L258.095 138.465C258.093 138.358 258.111 138.251 258.15 138.151C258.189 138.051 258.248 137.96 258.323 137.884C258.397 137.807 258.487 137.746 258.585 137.704C258.684 137.662 258.79 137.641 258.897 137.641H268.407C268.809 137.641 269.202 137.754 269.542 137.968C269.883 138.182 270.156 138.488 270.331 138.85L274.895 148.31C275.323 149.199 275.527 150.179 275.49 151.165Z" fill="#FF4A4A"/>
<path id="Vector_38" d="M258.79 168.735C256.897 167.586 255.197 166.147 253.751 164.469C250.391 160.683 248.347 155.908 247.927 150.86C247.552 146.54 248.408 143.33 250.47 141.317C253.091 138.758 256.659 139.13 256.81 139.147L256.97 139.165L259.387 141.214L258.703 142.024L256.54 140.191C255.878 140.158 253.175 140.15 251.2 142.085C249.383 143.866 248.637 146.787 248.982 150.768C249.382 155.574 251.323 160.122 254.515 163.733C255.892 165.329 257.506 166.703 259.301 167.806L258.79 168.735Z" fill="#FF4A4A"/>
<path id="Vector_39" d="M272.512 156.388L259.627 159.039L259.698 159.385L272.583 156.734L272.512 156.388Z" fill="#3F3D56"/>
<path id="Vector_40" d="M264.02 137.634L263.667 137.648L264.504 158.187L264.857 158.172L264.02 137.634Z" fill="#3F3D56"/>
<path id="Vector_41" d="M275.49 151.165C275.391 153.788 275.195 158.949 275.195 159.212C275.195 159.49 271.289 167.592 269.602 171.078L272.747 152.783C272.869 152.079 273.175 151.421 273.634 150.874C274.094 150.328 274.69 149.913 275.361 149.673C275.467 150.163 275.51 150.665 275.49 151.165Z" fill="#3F3D56"/>
<path id="Vector_42" d="M256.165 189.507C256.444 189.147 256.64 188.731 256.741 188.287C256.841 187.844 256.843 187.383 256.747 186.939C256.651 186.494 256.458 186.076 256.183 185.714C255.908 185.352 255.557 185.054 255.155 184.843L255.794 177.759L251.591 176.32L250.829 186.336C250.519 187.037 250.476 187.827 250.709 188.556C250.942 189.286 251.433 189.905 252.091 190.296C252.749 190.687 253.527 190.822 254.278 190.677C255.029 190.532 255.7 190.115 256.165 189.507Z" fill="#FFB7B7"/>
<path id="Vector_43" d="M256.714 182.652L249.268 182.382L249.583 146.407C249.577 145.389 249.891 144.395 250.481 143.565C251.07 142.736 251.905 142.113 252.867 141.785C253.766 141.485 254.737 141.485 255.636 141.782C256.656 142.128 257.533 142.804 258.126 143.705C258.72 144.605 258.998 145.677 258.916 146.753L256.714 182.652Z" fill="#CBCBCB"/>
<path id="Vector_44" d="M322.042 252H173.677C173.574 252 173.475 251.959 173.402 251.886C173.329 251.813 173.288 251.713 173.288 251.61C173.288 251.506 173.329 251.407 173.402 251.334C173.475 251.261 173.574 251.22 173.677 251.22H322.042C322.145 251.22 322.245 251.261 322.318 251.334C322.391 251.407 322.432 251.506 322.432 251.61C322.432 251.713 322.391 251.813 322.318 251.886C322.245 251.959 322.145 252 322.042 252Z" fill="#CBCBCB"/>
</g>
<defs>
<clipPath id="clip0_73_998">
<rect width="324" height="252" fill="white"/>
</clipPath>
</defs>
</svg>
