<svg width="314" height="265" viewBox="0 0 314 265" fill="none" xmlns="http://www.w3.org/2000/svg">
<g id="undraw_inspiration_re_ivlv 1" clip-path="url(#clip0_73_1176)">
<path id="Vector" d="M19.6513 112.078C16.6667 112.081 13.8053 113.265 11.6949 115.37C9.58452 117.475 8.39741 120.33 8.39404 123.307V170.928C8.39741 173.905 9.58452 176.759 11.6949 178.864C13.8053 180.969 16.6667 182.154 19.6513 182.157H93.7364C96.7209 182.154 99.5823 180.969 101.693 178.864C103.803 176.759 104.99 173.905 104.994 170.928V123.307C104.99 120.33 103.803 117.475 101.693 115.37C99.5823 113.265 96.7209 112.081 93.7364 112.078H19.6513Z" fill="white"/>
<path id="Vector_2" d="M93.7365 182.595H19.6514C16.5504 182.591 13.5774 181.361 11.3847 179.174C9.19197 176.987 7.95856 174.021 7.95508 170.928V123.307C7.95856 120.213 9.19197 117.248 11.3847 115.061C13.5774 112.873 16.5504 111.643 19.6514 111.64H93.7365C96.8375 111.643 99.8105 112.873 102.003 115.061C104.196 117.248 105.429 120.213 105.433 123.307V170.928C105.429 174.021 104.196 176.987 102.003 179.174C99.8105 181.361 96.8375 182.591 93.7365 182.595ZM19.6514 112.516C16.7832 112.519 14.0335 113.657 12.0054 115.68C9.97732 117.703 8.83651 120.446 8.83326 123.307V170.928C8.83651 173.789 9.97732 176.532 12.0054 178.555C14.0335 180.578 16.7832 181.716 19.6514 181.719H93.7365C96.6047 181.716 99.3544 180.578 101.382 178.555C103.411 176.532 104.551 173.789 104.555 170.928V123.307C104.551 120.446 103.411 117.703 101.382 115.68C99.3544 113.657 96.6047 112.519 93.7365 112.516H19.6514Z" fill="#3F3D56"/>
<path id="Vector_3" d="M50.1821 135.049C48.9632 136.316 47.7956 137.634 46.6961 139.002C44.2755 141.91 41.8891 144.843 39.4941 147.768C38.0025 149.587 36.511 151.407 35.0365 153.226C34.5683 152.926 34.1238 152.591 33.7069 152.223C31.3518 150.184 29.891 147.306 29.6376 144.205C29.3842 141.105 30.3583 138.029 32.3512 135.636C34.3441 133.244 37.1972 131.725 40.2992 131.405C43.4012 131.086 46.5052 131.991 48.9462 133.927C49.3861 134.269 49.7993 134.644 50.1821 135.049Z" fill="#FF4A4A"/>
<path id="Vector_4" d="M94.4835 133.668V135.433L93.6931 135.144L82.571 131.088C74.8653 136.563 71.8972 133.983 71.5938 127.312C71.4402 123.936 64.8845 126.428 61.6528 127.439C60.4966 129.908 58.833 132.327 53.9073 132.236C52.5621 132.21 51.9621 134.08 51.0357 135.047C50.7327 135.367 50.4297 135.687 50.1311 136.007C49.2354 136.979 47.4863 137.689 47.5493 139.003C47.7464 143.113 46.9812 146.793 40.3482 147.767C38.0143 148.109 35.4954 150.918 35.8871 153.224C37.4391 162.36 28.6798 166.523 21.1952 171.3C20.5395 171.293 19.8869 171.211 19.25 171.055C24.2161 164.901 29.2056 158.764 34.2185 152.642C34.3327 152.502 34.4469 152.361 34.561 152.221C35.1494 151.49 35.751 150.754 36.3481 150.023C38.8465 146.97 41.3464 143.92 43.8478 140.873C45.6656 138.657 47.4703 136.432 49.4286 134.329C49.5471 134.193 49.6701 134.062 49.7974 133.926C49.9862 133.725 50.175 133.528 50.3682 133.322C54.623 128.937 59.9316 125.061 66.2896 124.956C70.0306 124.899 73.6443 126.082 77.1219 127.33C80.8674 128.683 84.5996 130.059 88.3407 131.425L94.4835 133.668Z" fill="#3F3D56"/>
<path id="Vector_5" d="M91.3819 144.758V146.132L90.7668 145.907L82.1114 142.751C76.1146 147.012 73.8048 145.004 73.5687 139.813C73.4492 137.185 68.3474 139.124 65.8324 139.912C64.9326 141.832 63.638 143.715 59.8047 143.644C58.7579 143.624 58.2909 145.079 57.57 145.832C57.3342 146.081 57.0984 146.33 56.866 146.579C56.1689 147.335 54.8078 147.888 54.8568 148.91C55.0102 152.109 54.4147 154.973 49.2528 155.731C47.4365 155.997 45.4762 158.183 45.781 159.978C46.9889 167.088 40.1722 170.327 34.3475 174.045C33.8373 174.039 33.3294 173.975 32.8337 173.854C36.6985 169.065 40.5814 164.288 44.4826 159.524C44.5714 159.415 44.6602 159.306 44.7491 159.197C45.207 158.628 45.6751 158.055 46.1398 157.486C48.0842 155.11 50.0296 152.737 51.9762 150.366C53.3909 148.641 54.7953 146.909 56.3193 145.273C56.4116 145.168 56.5072 145.065 56.6063 144.96C56.7533 144.803 56.9002 144.649 57.0506 144.489C60.3617 141.077 64.4929 138.061 69.4409 137.979C72.3522 137.935 75.1645 138.855 77.8708 139.826C80.7855 140.88 83.69 141.95 86.6014 143.013L91.3819 144.758Z" fill="#3F3D56"/>
<path id="Vector_6" d="M88.7473 155.411V156.393L88.3075 156.233L82.1187 153.976C77.831 157.023 76.1794 155.586 76.0106 151.875C75.9251 149.996 72.2773 151.383 70.479 151.946C69.8357 153.319 68.91 154.665 66.1691 154.614C65.4206 154.6 65.0868 155.64 64.5713 156.179C64.4027 156.357 64.2341 156.535 64.0679 156.713C63.5695 157.254 62.5962 157.649 62.6313 158.38C62.741 160.667 62.3152 162.715 58.6244 163.257C57.3257 163.447 55.924 165.01 56.142 166.293C57.0056 171.377 52.1316 173.693 47.9669 176.351C47.602 176.347 47.2389 176.302 46.8845 176.215C49.6479 172.791 52.4242 169.375 55.2136 165.969L55.4042 165.735C55.7316 165.328 56.0663 164.919 56.3986 164.512C57.7888 162.813 59.1798 161.116 60.5717 159.42C61.5832 158.187 62.5874 156.949 63.6771 155.779C63.743 155.704 63.8114 155.631 63.8823 155.555C63.9873 155.443 64.0924 155.333 64.1999 155.219C66.5674 152.779 69.5213 150.622 73.0591 150.564C75.1408 150.532 77.1516 151.19 79.0867 151.885C81.1708 152.638 83.2475 153.403 85.3292 154.163L88.7473 155.411Z" fill="#3F3D56"/>
<path id="Vector_7" d="M164.825 85.9436L171.138 95.65L166.158 99.6977L159.844 89.2199C159.48 89.092 159.136 88.9133 158.822 88.6892C158.397 88.4178 158.032 88.063 157.749 87.6465C157.465 87.2299 157.27 86.7602 157.175 86.266C157.079 85.7718 157.086 85.2634 157.193 84.7717C157.301 84.28 157.508 83.8153 157.802 83.4059C158.095 82.9965 158.469 82.6508 158.9 82.3901C159.332 82.1293 159.812 81.9588 160.312 81.889C160.811 81.8192 161.32 81.8515 161.807 81.984C162.294 82.1164 162.748 82.3463 163.143 82.6595C163.67 83.0291 164.099 83.5214 164.392 84.0937C164.685 84.666 164.833 85.3011 164.825 85.9436Z" fill="#FFB6B6"/>
<path id="Vector_8" d="M252.366 253.051L248.51 255.552L237.005 241.907L242.695 238.216L252.366 253.051Z" fill="#FFB6B6"/>
<path id="Vector_9" d="M255.117 256.975L243.26 264.666L243.163 264.516C242.367 263.295 242.09 261.809 242.393 260.384C242.695 258.96 243.553 257.713 244.777 256.919L245.874 253.875L250.984 252.893L252.019 252.222L255.117 256.975Z" fill="#2F2E41"/>
<path id="Vector_10" d="M186.287 259.604L181.688 259.604L179.5 241.908L186.288 241.908L186.287 259.604Z" fill="#FFB6B6"/>
<path id="Vector_11" d="M186.449 264.39L172.306 264.389V264.211C172.306 262.755 172.886 261.358 173.919 260.328C174.951 259.299 176.351 258.72 177.811 258.72L180.395 256.765L185.215 258.72L186.449 258.72L186.449 264.39Z" fill="#2F2E41"/>
<path id="Vector_12" d="M233.893 150.41L192.651 151.315L188.563 156.412C188.563 156.412 183.741 158.921 183.427 160.895C183.112 162.869 180.33 197.919 181.834 199.239C183.338 200.559 178.982 209.672 178.662 210.228C178.343 210.783 174.894 238.215 178.662 240.471L180.078 250.046H186.664C186.664 250.046 193.262 242.43 191.934 241.049C190.607 239.668 194.404 235.077 194.549 232.615C194.695 230.153 196.081 218.987 195.007 217.197C193.933 215.406 192.48 208.687 195.206 206.082C197.931 203.477 210.642 171.468 210.642 171.468C210.642 171.468 214.336 208.994 214.327 211.941C214.316 215.773 216.838 213.876 216.838 217.24C216.838 217.92 225.052 235.388 230.573 240.848L241.989 249.608L247.259 245.666V239.972C247.259 239.972 242.376 229.408 240.672 227.708C238.969 226.009 232.679 220.808 232.679 218.43C232.679 216.051 229.719 215.222 231.71 212.068C233.701 208.914 233.02 207.555 232.339 206.196C231.657 204.837 239.493 162.019 239.493 162.019L233.893 150.41Z" fill="#2F2E41"/>
<path id="Vector_13" d="M226.084 72.7134L208.19 71.8557L203.611 79.3493C203.611 79.3493 190.236 80.6883 192.149 85.7061C194.061 90.7239 195.722 120.518 193.018 124.821C190.314 129.124 186.165 125.557 189.772 133.967C193.38 142.377 185.352 157.174 185.352 157.174L208.71 162.087C208.71 162.087 227.447 156.649 230.854 153.251C234.261 149.853 237.327 147.134 235.283 146.115C233.239 145.096 227.447 144.416 230.513 139.658C233.579 134.901 233.954 135.121 233.937 131.952C233.92 128.784 232.128 120.933 232.128 120.933C232.128 120.933 243.887 87.6647 240.345 86.4086C236.802 85.1524 226.913 79.3493 226.913 79.3493L226.084 72.7134Z" fill="#E6E6E6"/>
<path id="Vector_14" d="M202.928 82.9184C202.928 82.9184 192.665 78.0534 191.151 84.7303C189.637 91.4072 183.793 108.157 183.793 108.157C183.793 108.157 177.319 104.419 178.342 102.38C179.366 100.342 173.826 100.032 175.617 96.6032C177.408 93.1743 169.144 89.8068 169.144 89.8068L159.265 93.8846C159.265 93.8846 163.09 99.6038 165.632 102.125C168.174 104.647 164.377 105.097 167.441 108.157C170.505 111.217 176.676 122.664 176.676 122.664L184.71 126.006L207.275 112.255L202.928 82.9184Z" fill="#E6E6E6"/>
<path id="Vector_15" d="M216.696 67.828C223.579 67.828 229.159 62.2621 229.159 55.3963C229.159 48.5305 223.579 42.9647 216.696 42.9647C209.813 42.9647 204.233 48.5305 204.233 55.3963C204.233 62.2621 209.813 67.828 216.696 67.828Z" fill="#FFB6B6"/>
<path id="Vector_16" d="M224.815 58.5904C225.406 58.2902 226.161 58.8148 226.302 59.4619C226.343 59.7911 226.317 60.1252 226.224 60.4438C226.131 60.7623 225.974 61.0586 225.762 61.3144C225.336 61.8227 224.955 62.3663 224.622 62.9392C224.459 63.229 224.383 63.5591 224.402 63.8906C224.422 64.2221 224.535 64.5412 224.73 64.8105C224.943 65.0166 225.209 65.1584 225.499 65.2194C225.789 65.2804 226.09 65.2581 226.368 65.1552C226.921 64.9396 227.41 64.5873 227.789 64.1313C230.171 61.5527 232.657 57.2721 231.439 53.9825C231.338 53.6309 231.297 53.2647 231.32 52.8996C231.297 52.4811 231.219 51.8505 231.614 51.7082C232.717 51.311 229.622 44.8801 224.846 43.4811C225.078 41.2853 213.587 38.1268 214.215 40.8835C214.327 41.3785 213.218 41.1095 212.709 41.1369C208.811 41.3474 204.408 42.3247 204.763 46.8323C204.9 48.5778 204.176 48.1751 203.595 49.8273C204.5 50.3657 204.797 51.5464 205.495 50.7584C206.193 49.9705 206.789 48.9838 207.79 48.6528C208.855 48.3005 210.011 48.8276 210.92 49.4848C211.828 50.142 212.662 50.9586 213.73 51.3028C214.928 51.6889 216.234 51.4203 217.482 51.5766C219.258 51.7987 220.835 52.881 222.008 54.2286C223.126 55.6243 224.07 57.1507 224.819 58.7741" fill="#2F2E41"/>
<path id="Vector_17" d="M271.701 264.865L133.231 265C133.093 264.999 132.96 264.944 132.863 264.846C132.766 264.748 132.711 264.616 132.711 264.478C132.711 264.341 132.766 264.209 132.863 264.111C132.96 264.013 133.093 263.958 133.231 263.957L271.701 263.822C271.839 263.823 271.971 263.878 272.069 263.976C272.166 264.074 272.221 264.206 272.221 264.344C272.221 264.482 272.166 264.614 272.069 264.712C271.971 264.809 271.839 264.865 271.701 264.865Z" fill="#CACACA"/>
<path id="Vector_18" d="M228.219 155.877C225.234 155.88 222.373 157.065 220.262 159.17C218.152 161.275 216.965 164.129 216.961 167.106V214.727C216.965 217.704 218.152 220.559 220.262 222.664C222.373 224.769 225.234 225.953 228.219 225.956H302.304C305.288 225.953 308.15 224.769 310.26 222.664C312.371 220.559 313.558 217.704 313.561 214.727V167.106C313.558 164.129 312.371 161.275 310.26 159.17C308.15 157.065 305.288 155.88 302.304 155.877H228.219Z" fill="white"/>
<path id="Vector_19" d="M302.304 226.395H228.219C225.118 226.391 222.145 225.161 219.952 222.973C217.759 220.786 216.526 217.821 216.522 214.727V167.106C216.526 164.013 217.759 161.048 219.952 158.86C222.145 156.673 225.118 155.443 228.219 155.439H302.304C305.405 155.443 308.378 156.673 310.57 158.86C312.763 161.048 313.996 164.013 314 167.106V214.727C313.996 217.821 312.763 220.786 310.57 222.973C308.378 225.161 305.405 226.391 302.304 226.395ZM228.219 156.315C225.35 156.318 222.601 157.456 220.573 159.479C218.544 161.502 217.404 164.245 217.4 167.106V214.727C217.404 217.588 218.544 220.331 220.573 222.354C222.601 224.377 225.35 225.515 228.219 225.519H302.304C305.172 225.515 307.922 224.377 309.95 222.354C311.978 220.331 313.119 217.588 313.122 214.727V167.106C313.119 164.245 311.978 161.502 309.95 159.479C307.922 157.456 305.172 156.318 302.304 156.315H228.219Z" fill="#3F3D56"/>
<path id="Vector_20" d="M260.942 203.587C261.125 202.328 259.804 201.095 257.99 200.832C256.177 200.568 254.558 201.375 254.375 202.634C254.191 203.892 255.512 205.125 257.326 205.389C259.139 205.652 260.758 204.845 260.942 203.587Z" fill="#E6E6E6"/>
<path id="Vector_21" d="M282.532 201.485C282.716 200.227 281.394 198.993 279.581 198.73C277.768 198.467 276.149 199.274 275.965 200.532C275.782 201.79 277.103 203.024 278.916 203.287C280.73 203.55 282.349 202.743 282.532 201.485Z" fill="#3F3D56"/>
<path id="Vector_22" d="M255.029 186.151C255.213 184.892 253.892 183.659 252.078 183.396C250.265 183.133 248.646 183.939 248.462 185.198C248.279 186.456 249.6 187.69 251.413 187.953C253.227 188.216 254.846 187.409 255.029 186.151Z" fill="#2F2E41"/>
<path id="Vector_23" d="M245.648 179.009C245.656 177.854 245.01 176.912 244.205 176.906C243.399 176.9 242.739 177.832 242.73 178.987C242.721 180.142 243.367 181.084 244.173 181.09C244.979 181.096 245.639 180.164 245.648 179.009Z" fill="#E6E6E6"/>
<path id="Vector_24" d="M242.466 165.706C242.475 164.551 241.829 163.609 241.023 163.603C240.218 163.597 239.557 164.529 239.549 165.684C239.54 166.839 240.186 167.781 240.991 167.787C241.797 167.793 242.457 166.861 242.466 165.706Z" fill="#3F3D56"/>
<path id="Vector_25" d="M267.207 189.118C267.215 187.963 266.569 187.021 265.764 187.015C264.958 187.009 264.298 187.941 264.289 189.096C264.28 190.251 264.926 191.193 265.732 191.199C266.538 191.205 267.198 190.273 267.207 189.118Z" fill="#E6E6E6"/>
<path id="Vector_26" d="M256.773 194.314C256.782 193.159 256.136 192.218 255.33 192.212C254.525 192.206 253.864 193.137 253.856 194.292C253.847 195.448 254.493 196.389 255.299 196.395C256.104 196.401 256.764 195.47 256.773 194.314Z" fill="#2F2E41"/>
<path id="Vector_27" d="M271.297 203.919C271.306 202.763 270.66 201.822 269.854 201.816C269.048 201.81 268.388 202.741 268.38 203.897C268.371 205.052 269.017 205.993 269.822 205.999C270.628 206.005 271.288 205.074 271.297 203.919Z" fill="#3F3D56"/>
<path id="Vector_28" d="M276.144 198.302C277.419 198.302 278.452 196.82 278.452 194.992C278.452 193.164 277.419 191.682 276.144 191.682C274.869 191.682 273.836 193.164 273.836 194.992C273.836 196.82 274.869 198.302 276.144 198.302Z" fill="#E6E6E6"/>
<path id="Vector_29" d="M270.951 177.292C272.225 177.292 273.259 175.81 273.259 173.982C273.259 172.154 272.225 170.672 270.951 170.672C269.676 170.672 268.642 172.154 268.642 173.982C268.642 175.81 269.676 177.292 270.951 177.292Z" fill="#3F3D56"/>
<path id="Vector_30" d="M259.698 206.648C260.973 206.648 262.006 205.166 262.006 203.338C262.006 201.511 260.973 200.029 259.698 200.029C258.423 200.029 257.39 201.511 257.39 203.338C257.39 205.166 258.423 206.648 259.698 206.648Z" fill="#2F2E41"/>
<path id="Vector_31" d="M254.362 213.201C255.509 213.043 256.35 212.27 256.24 211.474C256.13 210.678 255.111 210.16 253.964 210.318C252.816 210.475 251.975 211.249 252.085 212.045C252.195 212.841 253.215 213.359 254.362 213.201Z" fill="#E6E6E6"/>
<path id="Vector_32" d="M241.623 218.257C242.77 218.099 243.611 217.326 243.501 216.53C243.391 215.734 242.372 215.216 241.225 215.374C240.078 215.531 239.237 216.305 239.347 217.101C239.457 217.897 240.476 218.414 241.623 218.257Z" fill="#3F3D56"/>
<path id="Vector_33" d="M261.287 190.464C262.434 190.306 263.275 189.533 263.165 188.737C263.055 187.941 262.036 187.423 260.888 187.581C259.741 187.739 258.9 188.512 259.01 189.308C259.12 190.104 260.139 190.622 261.287 190.464Z" fill="#E6E6E6"/>
<path id="Vector_34" d="M267.944 200.015C269.091 199.857 269.932 199.084 269.822 198.288C269.712 197.492 268.693 196.974 267.546 197.132C266.398 197.29 265.557 198.063 265.667 198.859C265.777 199.655 266.797 200.173 267.944 200.015Z" fill="#2F2E41"/>
<path id="Vector_35" d="M275.381 184.296C276.528 184.138 277.369 183.365 277.259 182.568C277.149 181.772 276.13 181.255 274.982 181.412C273.835 181.57 272.994 182.343 273.104 183.14C273.214 183.936 274.233 184.453 275.381 184.296Z" fill="#3F3D56"/>
<path id="Vector_36" d="M83.7582 16.1564C80.7736 16.1597 77.9123 17.3439 75.8019 19.449C73.6915 21.5542 72.5043 24.4084 72.501 27.3856V75.0065C72.5043 77.9837 73.6915 80.8379 75.8019 82.9431C77.9123 85.0482 80.7736 86.2324 83.7582 86.2357H157.843C160.828 86.2324 163.689 85.0482 165.8 82.9431C167.91 80.8379 169.097 77.9837 169.101 75.0065V27.3856C169.097 24.4084 167.91 21.5542 165.8 19.449C163.689 17.3439 160.828 16.1597 157.843 16.1564H83.7582Z" fill="white"/>
<path id="Vector_37" d="M157.843 86.6738H83.7583C80.6574 86.6702 77.6844 85.4399 75.4917 83.2526C73.2989 81.0654 72.0655 78.0998 72.062 75.0065V27.3856C72.0655 24.2923 73.2989 21.3268 75.4917 19.1395C77.6844 16.9522 80.6574 15.7219 83.7583 15.7184H157.843C160.944 15.7219 163.917 16.9522 166.11 19.1395C168.303 21.3268 169.536 24.2923 169.54 27.3856V75.0065C169.536 78.0998 168.303 81.0654 166.11 83.2526C163.917 85.4399 160.944 86.6702 157.843 86.6738ZM83.7583 16.5944C80.8902 16.5976 78.1404 17.7355 76.1123 19.7586C74.0842 21.7816 72.9434 24.5246 72.9402 27.3856V75.0065C72.9434 77.8676 74.0842 80.6105 76.1123 82.6335C78.1404 84.6566 80.8902 85.7945 83.7583 85.7978H157.843C160.712 85.7945 163.461 84.6566 165.489 82.6335C167.518 80.6105 168.658 77.8676 168.662 75.0065V27.3856C168.658 24.5246 167.518 21.7816 165.489 19.7586C163.461 17.7355 160.712 16.5976 157.843 16.5944H83.7583Z" fill="#3F3D56"/>
<path id="Vector_38" d="M113.256 63.6823C112.338 62.7665 111.246 62.0427 110.043 61.5533C108.841 61.0638 107.553 60.8186 106.255 60.832L106.151 60.8322C104.381 60.8329 102.642 60.3644 101.112 59.4747L100.953 59.3822L101.081 59.2504C101.775 58.5341 102.355 57.7156 102.799 56.8237C102.483 57.1174 102.107 57.3383 101.696 57.4707C101.285 57.6031 100.85 57.6438 100.421 57.5899C99.9691 57.5362 99.5348 57.3809 99.1512 57.1358C98.7677 56.8907 98.4447 56.5622 98.2066 56.1748C97.267 54.6541 96.147 52.4964 96.147 50.8526C96.1484 49.4632 96.4401 48.0893 97.0033 46.8185C97.5666 45.5478 98.389 44.408 99.4183 43.4719C100.07 42.8858 100.59 42.1693 100.946 41.3691C101.301 40.5689 101.484 39.7029 101.481 38.8277L101.48 38.7031C101.48 37.5509 101.621 36.4029 101.901 35.2848L101.929 35.1719L102.046 35.176C102.797 35.2014 103.548 35.1387 104.284 34.9889C103.594 34.9044 102.918 34.7251 102.277 34.4562L102.151 34.4057L102.194 34.2776C105.125 32.4675 111.74 33.4049 115.58 24.6411C118.694 17.5349 129.68 30.9493 129.68 38.7031C129.68 39.4943 128.895 40.5399 129.483 41.0628C135.835 46.7158 131.452 50.3458 130.07 53.9984C129.742 54.8651 130.453 55.8165 130.453 56.7541C130.453 56.9131 130.449 57.0774 130.441 57.2421L130.429 57.4955L130.217 57.3549C129.798 57.0811 129.41 56.7633 129.059 56.407C129.423 57.2433 129.595 58.1503 129.561 59.0614C129.528 59.9726 129.29 60.8646 128.865 61.6719C128.39 62.6667 127.742 63.5695 126.951 64.3386C125.014 65.9915 122.518 66.8441 119.973 66.7221C117.427 66.6001 115.024 65.5127 113.256 63.6823Z" fill="#FF4A4A"/>
<path id="Vector_39" d="M123.891 82.5376C123.934 82.5376 123.976 82.522 124.009 82.4936C124.041 82.4653 124.063 82.4262 124.069 82.3834C124.539 78.1984 124.567 73.9756 124.153 69.7847C123.532 63.1734 121.537 53.6508 115.563 45.8301C115.549 45.8112 115.531 45.7954 115.511 45.7835C115.49 45.7715 115.468 45.7638 115.444 45.7606C115.421 45.7574 115.397 45.7588 115.374 45.7648C115.351 45.7709 115.33 45.7813 115.311 45.7956C115.292 45.8099 115.276 45.8278 115.264 45.8482C115.252 45.8687 115.245 45.8912 115.242 45.9146C115.238 45.9381 115.24 45.9619 115.246 45.9847C115.252 46.0075 115.263 46.0289 115.277 46.0476C121.2 53.8008 123.178 63.2535 123.794 69.8182C124.207 73.9811 124.179 78.1757 123.712 82.3328C123.709 82.3583 123.711 82.3843 123.718 82.4089C123.725 82.4336 123.738 82.4564 123.755 82.4758C123.772 82.4952 123.793 82.5108 123.816 82.5215C123.84 82.5321 123.865 82.5376 123.891 82.5376Z" fill="#3F3D56"/>
<path id="Vector_40" d="M119.016 56.8616C119.054 56.8616 119.091 56.8497 119.121 56.8274C119.152 56.8051 119.175 56.7737 119.187 56.7377C119.199 56.7016 119.199 56.6628 119.187 56.6267C119.175 56.5907 119.152 56.5593 119.121 56.537C117.419 55.3876 115.58 54.4538 113.647 53.7571C110.627 52.6541 106.034 51.6541 101.306 53.1552C101.26 53.1697 101.222 53.2015 101.2 53.2438C101.178 53.2861 101.174 53.3353 101.189 53.3807C101.203 53.426 101.235 53.4638 101.277 53.4856C101.32 53.5075 101.369 53.5117 101.415 53.4973C106.046 52.027 110.556 53.0104 113.523 54.0942C115.425 54.779 117.235 55.697 118.91 56.8273C118.941 56.8496 118.978 56.8616 119.016 56.8616Z" fill="#3F3D56"/>
<path id="Vector_41" d="M127.25 36.4034C127.253 36.3656 127.244 36.3278 127.224 36.2956C127.204 36.2634 127.174 36.2384 127.139 36.2241C127.103 36.2098 127.065 36.207 127.028 36.216C126.991 36.2251 126.958 36.2456 126.933 36.2746C125.661 37.8854 124.595 39.6478 123.759 41.521C122.439 44.4466 121.108 48.9441 122.269 53.7565C122.274 53.7794 122.284 53.801 122.298 53.8201C122.312 53.8391 122.33 53.8553 122.35 53.8676C122.37 53.8799 122.392 53.8881 122.416 53.8918C122.439 53.8955 122.463 53.8945 122.486 53.889C122.509 53.8835 122.53 53.8735 122.55 53.8597C122.569 53.8458 122.585 53.8283 122.597 53.8082C122.61 53.7881 122.618 53.7658 122.621 53.7425C122.625 53.7192 122.624 53.6955 122.619 53.6726C121.482 48.9588 122.79 44.5429 124.088 41.6684C124.909 39.8252 125.958 38.0911 127.208 36.506C127.233 36.4771 127.247 36.4411 127.25 36.4034Z" fill="#3F3D56"/>
<path id="Vector_42" d="M144.097 29.9567C141.834 20.4759 142.212 11.1379 146.087 1.98904C146.128 1.42302 146.392 0.896304 146.822 0.524437C147.251 0.15257 147.811 -0.0340735 148.379 0.00545256L169.554 1.50418C170.121 1.54499 170.649 1.80865 171.022 2.23732C171.395 2.66599 171.582 3.22466 171.542 3.79077L169.553 31.7584C169.512 32.3245 169.247 32.8512 168.818 33.2231C168.388 33.5949 167.828 33.7816 167.26 33.742L146.086 32.2433C145.518 32.2025 144.99 31.9388 144.618 31.5102C144.245 31.0815 144.058 30.5228 144.097 29.9567Z" fill="#F2F2F2"/>
<path id="Vector_43" d="M146.322 21.6242C144.511 16.9523 145.669 10.5268 147.601 3.64407C147.64 3.11397 147.887 2.62068 148.29 2.27241C148.692 1.92414 149.217 1.74935 149.748 1.78637L167.946 3.07441C168.477 3.11261 168.972 3.35953 169.321 3.76099C169.67 4.16246 169.845 4.68568 169.808 5.21588L168.038 30.1033C168 30.6334 167.752 31.1267 167.35 31.475C166.947 31.8232 166.423 31.998 165.891 31.961L154.618 31.1631C152.251 30.9929 150.048 29.893 148.493 28.1047C146.938 26.3165 146.157 23.9859 146.322 21.6242Z" fill="white"/>
<path id="Vector_44" d="M155.233 26.1575C156.27 26.1575 157.11 25.3193 157.11 24.2855C157.11 23.2516 156.27 22.4135 155.233 22.4135C154.197 22.4135 153.356 23.2516 153.356 24.2855C153.356 25.3193 154.197 26.1575 155.233 26.1575Z" fill="#FF4A4A"/>
<path id="Vector_45" d="M162.524 7.90796C162.077 6.89117 160.772 6.63935 159.665 6.52357C158.53 6.35422 157.377 6.33654 156.237 6.471C155.666 6.54124 155.116 6.72341 154.616 7.00701C154.117 7.29061 153.679 7.67002 153.327 8.12336C152.523 9.27691 152.558 10.804 152.733 12.1984C153.069 14.8809 153.801 17.4992 154.904 19.9686L155.641 20.6218C157.485 19.329 159.051 17.6813 160.248 15.7755C161.444 13.8698 162.245 11.7446 162.606 9.52515C162.732 8.9892 162.704 8.42848 162.524 7.90796Z" fill="#FF4A4A"/>
<path id="Vector_46" d="M1.39337 190.701C-0.869594 181.22 -0.492212 171.882 3.38281 162.734C3.42372 162.168 3.68804 161.641 4.11778 161.269C4.54752 160.897 5.10759 160.71 5.67511 160.75L26.8496 162.249C27.4171 162.289 27.9451 162.553 28.3179 162.982C28.6907 163.411 28.8778 163.969 28.8382 164.535L26.8487 192.503C26.8078 193.069 26.5435 193.596 26.1138 193.968C25.684 194.339 25.124 194.526 24.5564 194.487L3.38193 192.988C2.81449 192.947 2.28645 192.683 1.91365 192.255C1.54086 191.826 1.35374 191.267 1.39337 190.701Z" fill="#F2F2F2"/>
<path id="Vector_47" d="M3.61845 182.369C1.80743 177.697 2.96537 171.271 4.89744 164.389C4.93575 163.858 5.18329 163.365 5.58576 163.017C5.98823 162.669 6.51274 162.494 7.04425 162.531L25.242 163.819C25.7734 163.857 26.2679 164.104 26.6171 164.505C26.9662 164.907 27.1415 165.43 27.1044 165.96L25.3341 190.848C25.2957 191.378 25.0482 191.871 24.6457 192.219C24.2432 192.568 23.7187 192.743 23.1872 192.706L11.9141 191.908C9.54691 191.737 7.34412 190.638 5.78893 188.849C4.23374 187.061 3.45317 184.73 3.61845 182.369Z" fill="white"/>
<path id="Vector_48" d="M22.7652 170.87C18.4893 172.971 15.1107 174.916 13.3347 179.308C12.1905 176.678 11.0464 175.799 9.90219 173.169C9.56564 172.395 8.43045 173.063 8.76478 173.832C10.1191 176.946 11.4735 180.059 12.8278 183.173C13.0667 183.722 13.8824 183.507 14.0316 183.016C14.7645 180.639 15.9761 178.437 17.5921 176.543C19.2082 174.65 21.1947 173.106 23.4301 172.005C24.1905 171.631 23.5238 170.498 22.7652 170.87Z" fill="#FF4A4A"/>
<path id="Vector_49" d="M223.572 186.759C221.309 177.279 221.687 167.941 225.562 158.792C225.603 158.226 225.867 157.699 226.297 157.327C226.726 156.955 227.287 156.769 227.854 156.808L249.029 158.307C249.596 158.348 250.124 158.611 250.497 159.04C250.87 159.469 251.057 160.027 251.017 160.593L249.028 188.561C248.987 189.127 248.722 189.654 248.293 190.026C247.863 190.398 247.303 190.584 246.735 190.545L225.561 189.046C224.993 189.005 224.465 188.741 224.093 188.313C223.72 187.884 223.533 187.325 223.572 186.759Z" fill="#F2F2F2"/>
<path id="Vector_50" d="M225.797 178.427C223.986 173.755 225.144 167.329 227.076 160.447C227.115 159.917 227.362 159.423 227.765 159.075C228.167 158.727 228.692 158.552 229.223 158.589L247.421 159.877C247.952 159.915 248.447 160.162 248.796 160.564C249.145 160.965 249.32 161.488 249.283 162.018L247.513 186.906C247.475 187.436 247.227 187.929 246.825 188.278C246.422 188.626 245.898 188.801 245.366 188.764L234.093 187.966C231.726 187.795 229.523 186.696 227.968 184.907C226.413 183.119 225.632 180.788 225.797 178.427Z" fill="white"/>
<path id="Vector_51" d="M244.944 166.928C240.668 169.029 237.29 170.975 235.514 175.366C234.369 172.736 233.225 171.857 232.081 169.227C231.745 168.453 230.609 169.122 230.944 169.89C232.298 173.004 233.652 176.117 235.007 179.231C235.246 179.78 236.061 179.566 236.211 179.074C236.943 176.697 238.155 174.495 239.771 172.601C241.387 170.708 243.374 169.164 245.609 168.063C246.369 167.689 245.703 166.556 244.944 166.928Z" fill="#FF4A4A"/>
<path id="Vector_52" d="M230.695 154.15L236.503 144.682L242.388 147.237L235.891 157.029C235.987 157.713 235.891 158.411 235.612 159.044C235.333 159.677 234.882 160.219 234.311 160.611C233.74 161.002 233.071 161.227 232.378 161.26C231.686 161.292 230.999 161.132 230.393 160.796C229.787 160.46 229.287 159.963 228.949 159.359C228.612 158.756 228.449 158.07 228.481 157.379C228.512 156.689 228.736 156.021 229.127 155.45C229.518 154.88 230.061 154.429 230.695 154.15Z" fill="#FFB6B6"/>
<path id="Vector_53" d="M231.259 87.8909C231.259 87.8909 239.371 84.9469 240.393 86.9858C241.415 89.0248 246.903 126.231 246.203 128.187C245.503 130.143 241.074 124.706 245.503 130.143C249.931 135.58 249.25 134.221 248.228 135.241C247.206 136.26 242.991 150.535 242.991 150.535L231.259 148.994L235.283 126.745L230.1 98.9534L231.259 87.8909Z" fill="#E6E6E6"/>
</g>
<defs>
<clipPath id="clip0_73_1176">
<rect width="314" height="265" fill="white"/>
</clipPath>
</defs>
</svg>
