<svg width="60" height="60" viewBox="0 0 60 60" fill="none" xmlns="http://www.w3.org/2000/svg">
<g id="Component 4">
<path id="Vector" d="M30 59C46.0163 59 59 46.0163 59 30C59 13.9837 46.0163 1 30 1C13.9837 1 1 13.9837 1 30C1 46.0163 13.9837 59 30 59Z" fill="white"/>
<path id="Vector_2" d="M30 1.2C35.6961 1.2 41.2643 2.88909 46.0004 6.05367C50.7366 9.21826 54.4279 13.7162 56.6077 18.9787C58.7875 24.2412 59.3579 30.0319 58.2466 35.6186C57.1354 41.2052 54.3924 46.3369 50.3647 50.3647C46.3369 54.3924 41.2053 57.1353 35.6186 58.2466C30.032 59.3579 24.2412 58.7875 18.9787 56.6077C13.7162 54.4279 9.21827 50.7365 6.05369 46.0004C2.8891 41.2643 1.20001 35.6961 1.20001 30C1.20795 22.3642 4.24478 15.0434 9.64411 9.64409C15.0434 4.24477 22.3642 1.20794 30 1.2ZM30 0C24.0666 0 18.2664 1.75947 13.3329 5.05591C8.39943 8.35235 4.55426 13.0377 2.28363 18.5195C0.0129985 24.0013 -0.581101 30.0333 0.576455 35.8527C1.73401 41.6721 4.59123 47.0176 8.78681 51.2132C12.9824 55.4088 18.3279 58.266 24.1473 59.4235C29.9667 60.5811 35.9987 59.987 41.4805 57.7164C46.9623 55.4457 51.6476 51.6006 54.9441 46.6671C58.2405 41.7336 60 35.9334 60 30C60 22.0435 56.8393 14.4129 51.2132 8.78679C45.5871 3.1607 37.9565 0 30 0Z" fill="#FF4A4A"/>
<path id="Vector_3" d="M42.3774 23H17.6226C15.6219 23 14 24.608 14 26.5915V36.4085C14 38.392 15.6219 40 17.6226 40H42.3774C44.3781 40 46 38.392 46 36.4085V26.5915C46 24.608 44.3781 23 42.3774 23Z" fill="#FF4A4A"/>
<path id="Vector_4" d="M33.7704 19.5032C33.4517 19.0039 32.9641 19.0709 32.0641 18.669C30.4265 17.9321 30.2765 16.909 29.5077 17.0065C28.7389 17.1039 28.8827 18.0174 27.7951 18.669C26.7076 19.3205 25.7388 18.8273 25.2387 19.5032C25.0826 19.7538 25 20.0413 25 20.3345C25 20.6276 25.0826 20.9151 25.2387 21.1657C25.745 21.9817 27.0076 22 29.5077 22C32.0078 22 33.2579 22 33.7704 21.1657C33.9208 20.9132 34 20.6264 34 20.3345C34 20.0425 33.9208 19.7558 33.7704 19.5032Z" fill="#FF4A4A"/>
<path id="Vector_5" d="M12 33.955C15.7789 32.8062 18.29 33.3168 19.8852 33.955C21.8444 34.7656 22.7603 35.9655 24.7377 35.8697C26.0418 35.8059 26.2784 35.2315 28.9836 33.955C31.9557 32.5317 33.4357 31.8169 35.0492 32.0403C37.3116 32.3466 37.7059 34.1018 39.9016 35.2315C41.6425 36.1314 44.4326 36.5909 49 34.5932" stroke="white" stroke-width="3" stroke-miterlimit="10"/>
<path id="Vector_6" d="M10 29.4663C13.7789 28.6046 16.29 28.9876 17.8852 29.4663C19.8444 30.0742 20.7603 30.9741 22.7377 30.9023C24.0418 30.8544 24.2784 30.4236 26.9836 29.4663C29.9557 28.3988 31.4357 27.8627 33.0492 28.0302C35.3116 28.26 35.7059 29.5763 37.9016 30.4236C39.6425 31.0985 42.4326 31.4432 47 29.9449" stroke="white" stroke-width="3" stroke-miterlimit="10"/>
</g>
</svg>
