<svg width="60" height="60" viewBox="0 0 60 60" fill="none" xmlns="http://www.w3.org/2000/svg">
<g id="Component 2">
<path id="Vector" d="M30 59C46.0163 59 59 46.0163 59 30C59 13.9837 46.0163 1 30 1C13.9837 1 1 13.9837 1 30C1 46.0163 13.9837 59 30 59Z" fill="white"/>
<path id="Vector_2" d="M30 1.2C35.6961 1.2 41.2643 2.88909 46.0004 6.05367C50.7366 9.21826 54.4279 13.7162 56.6077 18.9787C58.7875 24.2412 59.3579 30.0319 58.2466 35.6186C57.1354 41.2052 54.3924 46.3369 50.3647 50.3647C46.3369 54.3924 41.2053 57.1353 35.6186 58.2466C30.032 59.3579 24.2412 58.7875 18.9787 56.6077C13.7162 54.4279 9.21827 50.7365 6.05369 46.0004C2.8891 41.2643 1.20001 35.6961 1.20001 30C1.20795 22.3642 4.24478 15.0434 9.64411 9.64409C15.0434 4.24477 22.3642 1.20794 30 1.2ZM30 0C24.0666 0 18.2664 1.75947 13.3329 5.05591C8.39943 8.35235 4.55426 13.0377 2.28363 18.5195C0.0129985 24.0013 -0.581101 30.0333 0.576455 35.8527C1.73401 41.6721 4.59123 47.0176 8.78681 51.2132C12.9824 55.4088 18.3279 58.266 24.1473 59.4235C29.9667 60.5811 35.9987 59.987 41.4805 57.7164C46.9623 55.4457 51.6476 51.6006 54.9441 46.6671C58.2405 41.7336 60 35.9334 60 30C60 22.0435 56.8393 14.4129 51.2132 8.78679C45.5871 3.1607 37.9565 0 30 0Z" fill="#FF4A4A"/>
<path id="Vector_3" d="M29.7784 37.2769C30.5071 38.0697 37.1192 45.2689 35.835 46.7428C34.6882 48.0641 28.0164 43.9536 25.3584 42.145C21.8822 39.7961 17.5637 36.0438 18.0356 34.1882C18.3129 33.5626 18.7198 33.0006 19.2302 32.5381C19.6752 31.9434 20.2405 31.4456 20.8906 31.0759C23.238 30.2304 29.2588 36.7132 29.7784 37.2769Z" fill="#FF4A4A"/>
<path id="Vector_4" d="M19.1084 32C18.0716 31.9816 17.0406 31.8319 16.037 31.554C12.536 30.5926 9.74174 28.1543 10.019 27.4362C10.2038 26.9671 11.5792 27.4362 11.9978 26.6833C12.4164 25.9304 11.5194 25.0153 11.9054 24.5114C12.2914 24.0075 13.4493 24.7952 14.0799 24.2218C14.7105 23.6485 14.1125 22.2643 14.5148 22.0326C15.1345 21.6677 17.6243 24.4129 19.0867 27.969C19.4738 28.9144 19.7795 29.8953 20 30.8996L19.1084 32Z" fill="#FF4A4A"/>
<path id="Vector_5" d="M44.0044 29.2477C45.1235 25.4009 42.7085 21.3159 38.6103 20.1238C34.5121 18.9316 30.2827 21.0836 29.1637 24.9304C28.0446 28.7772 30.4596 32.8621 34.5578 34.0543C38.656 35.2465 42.8854 33.0945 44.0044 29.2477Z" fill="#FF4A4A"/>
<path id="Vector_6" d="M37.3528 24.9801H37.2974C36.7193 24.8805 36.6824 24.2495 36.6824 23.871C36.6878 23.62 36.6503 23.3701 36.5717 23.1338C36.3482 23.1559 36.1287 23.2118 35.9197 23.2998C35.7239 23.3862 35.5159 23.4356 35.3046 23.4459C35.1812 23.4502 35.059 23.4185 34.9508 23.3542C34.8426 23.29 34.7523 23.1955 34.6896 23.0806C34.3943 22.5626 34.8003 22.1044 35.0463 21.8321C35.1017 21.7723 35.1878 21.6793 35.2554 21.593L34.954 21.5C34.585 21.4004 34.0253 21.2543 34.0007 20.6433C33.9761 20.0323 34.6158 19.8197 35.1632 19.6935C35.5609 19.6377 35.945 19.5002 36.2949 19.2884C36.2605 19.2259 36.2336 19.159 36.2149 19.0892C35.9935 18.4649 36.2703 18.1926 36.4609 18.0797L36.5963 18H36.7623C37.1252 18 37.3036 18.2789 37.482 18.5512C37.5681 18.6841 37.8387 19.1025 37.974 19.129C38.1112 19.0462 38.2357 18.9409 38.343 18.8169C38.4243 18.7059 38.5257 18.6139 38.6409 18.5465C38.7562 18.4791 38.8829 18.4378 39.0135 18.425H39.2164L39.401 18.5645C39.5323 18.683 39.6222 18.8463 39.6558 19.0275C39.6893 19.2087 39.6645 19.3968 39.5855 19.5607C39.5414 19.6624 39.5204 19.7739 39.524 19.8861C39.5941 19.9638 39.6703 20.0349 39.7515 20.0987C39.8438 20.1717 39.9422 20.2581 40.0406 20.351C40.4363 20.7196 40.8697 21.0383 41.3323 21.3008C41.6398 21.4867 42.1687 21.7922 41.9473 22.3899C41.8924 22.541 41.7941 22.6689 41.6667 22.755C41.5394 22.8411 41.3898 22.8808 41.24 22.8681C41.0495 22.8604 40.8601 22.8337 40.6741 22.7884C40.4712 22.7428 40.2658 22.7118 40.0591 22.6954C40.1289 22.9014 40.209 23.1032 40.2989 23.2998C40.4896 23.7182 40.7479 24.3027 40.2989 24.6746L40.139 24.8008H39.9115C39.5855 24.8008 39.3702 24.5683 39.0688 24.2562C38.8656 24.0246 38.6362 23.8216 38.3861 23.6518C38.2974 23.8148 38.2272 23.9887 38.177 24.1698C38.0601 24.5019 37.894 25 37.3897 25L37.3528 24.9801Z" fill="#FF4A4A"/>
<path id="Vector_7" d="M36.266 19.1135C36.3981 19.1135 36.8182 20.0424 37.4183 20.0647C37.9045 20.0647 38.2946 19.4716 38.4386 19.4716C38.5346 19.5332 38.2346 19.8689 38.3246 20.2494C38.3906 20.546 38.6967 20.6747 39.0148 20.9432C39.921 21.693 40.7732 21.9281 40.7252 22.0624C40.7252 22.0903 40.6712 22.1015 40.5992 22.1015C40.3591 22.1015 39.825 21.956 39.3989 21.956C39.3033 21.9437 39.2059 21.953 39.115 21.9832C39.0241 22.0134 38.9424 22.0636 38.8767 22.1295C38.5526 22.5492 39.4769 23.6235 39.2908 23.7298C39.0868 23.7298 38.3606 22.7506 37.7604 22.7506H37.6344C37.1123 22.8905 37.0342 23.8697 36.8302 23.8697C36.6321 23.8417 36.9022 22.7506 36.3741 22.3981C36.2562 22.3466 36.1246 22.3291 35.996 22.3477C35.5902 22.4087 35.1892 22.4947 34.7956 22.6051C34.7798 22.606 34.764 22.6034 34.7494 22.5976C34.7348 22.5918 34.7219 22.5828 34.7116 22.5715C34.6036 22.3981 35.5758 21.8609 35.4498 21.4524C35.3238 21.044 34.1955 20.988 34.1955 20.7642C34.1955 20.5404 36.17 20.5348 36.3981 19.8241C36.4941 19.5108 36.212 19.1527 36.284 19.1191M36.284 18H35.978L35.7019 18.1399C35.4811 18.2583 35.305 18.4375 35.1975 18.6528C35.0901 18.8682 35.0566 19.1092 35.1017 19.3429L34.6156 19.4436C34.0754 19.55 32.9591 19.7682 33.0012 20.8145C33.0104 21.0431 33.0901 21.2644 33.2305 21.4519C33.371 21.6394 33.5664 21.7853 33.7934 21.8721C33.655 22.0564 33.5779 22.2745 33.5715 22.4993C33.5651 22.7242 33.6297 22.9458 33.7574 23.1367C33.8755 23.3108 34.0397 23.4537 34.2341 23.5517C34.4285 23.6496 34.6467 23.6994 34.8677 23.6962C35.1146 23.6888 35.3583 23.6415 35.5878 23.5564C35.6299 24.4125 36.008 24.8993 36.6981 25H36.7882H36.8842C37.1463 24.9936 37.4004 24.9147 37.6141 24.7732C37.8279 24.6316 37.9917 24.434 38.0845 24.2054C38.2334 24.3843 38.421 24.532 38.635 24.639C38.849 24.746 39.0847 24.8099 39.3269 24.8265H39.717L40.0591 24.6027C40.2915 24.4453 40.4593 24.2186 40.5346 23.9601C40.6099 23.7016 40.5882 23.4269 40.4732 23.1815H40.6592C40.9279 23.1915 41.1932 23.123 41.4181 22.9855C41.643 22.8481 41.8162 22.6486 41.9136 22.4149C42.1656 21.7826 41.8655 21.2398 41.0253 20.809C40.6091 20.6193 40.2183 20.3845 39.861 20.1095L39.6329 19.9305C39.729 19.6903 39.7381 19.4274 39.659 19.1819C39.5799 18.9365 39.4169 18.7218 39.1948 18.5707L38.8767 18.3581H38.4626C38.0984 18.3674 37.7521 18.5078 37.4964 18.7498L37.4604 18.6994C37.34 18.4978 37.1668 18.3278 36.9569 18.2055C36.7469 18.0832 36.5072 18.0125 36.26 18H36.284Z" fill="white"/>
</g>
</svg>
