<svg width="60" height="60" viewBox="0 0 60 60" fill="none" xmlns="http://www.w3.org/2000/svg">
<g id="Component 1">
<path id="Vector" d="M30 59C46.0163 59 59 46.0163 59 30C59 13.9837 46.0163 1 30 1C13.9837 1 1 13.9837 1 30C1 46.0163 13.9837 59 30 59Z" fill="white"/>
<path id="Vector_2" d="M30 1.2C35.6961 1.2 41.2643 2.88909 46.0004 6.05367C50.7366 9.21826 54.4279 13.7162 56.6077 18.9787C58.7875 24.2412 59.3579 30.0319 58.2466 35.6186C57.1354 41.2052 54.3924 46.3369 50.3647 50.3647C46.3369 54.3924 41.2053 57.1353 35.6186 58.2466C30.032 59.3579 24.2412 58.7875 18.9787 56.6077C13.7162 54.4279 9.21827 50.7365 6.05369 46.0004C2.8891 41.2643 1.20001 35.6961 1.20001 30C1.20795 22.3642 4.24478 15.0434 9.64411 9.64409C15.0434 4.24477 22.3642 1.20794 30 1.2ZM30 0C24.0666 0 18.2664 1.75947 13.3329 5.05591C8.39943 8.35235 4.55426 13.0377 2.28363 18.5195C0.0129985 24.0013 -0.581101 30.0333 0.576455 35.8527C1.73401 41.6721 4.59123 47.0176 8.78681 51.2132C12.9824 55.4088 18.3279 58.266 24.1473 59.4235C29.9667 60.5811 35.9987 59.987 41.4805 57.7164C46.9623 55.4457 51.6476 51.6006 54.9441 46.6671C58.2405 41.7336 60 35.9334 60 30C60 22.0435 56.8393 14.4129 51.2132 8.78679C45.5871 3.1607 37.9565 0 30 0Z" fill="#FF4A4A"/>
<path id="Vector_3" d="M30 48C37.1797 48 43 40.6127 43 31.5C43 22.3873 37.1797 15 30 15C22.8203 15 17 22.3873 17 31.5C17 40.6127 22.8203 48 30 48Z" fill="#FF4A4A"/>
<path id="Vector_4" d="M30 17.294C32.6722 17.294 35.247 18.704 37.2374 21.272C39.5269 24.3875 40.7236 28.1538 40.6461 32C40.7236 35.8462 39.5269 39.6125 37.2374 42.728C35.247 45.296 32.6722 46.706 30 46.706C27.3278 46.706 24.753 45.296 22.7626 42.728C20.4731 39.6125 19.2764 35.8462 19.3539 32C19.2764 28.1538 20.4731 24.3875 22.7626 21.272C24.753 18.704 27.3278 17.294 30 17.294ZM30 14C22.2757 14 16 22.058 16 32C16 41.942 22.2757 50 30 50C37.7243 50 44 41.942 44 32C44 22.058 37.7243 14 30 14Z" fill="#FF4A4A"/>
<path id="Vector_5" d="M30 45C34.4183 45 38 41.6421 38 37.5C38 33.3579 34.4183 30 30 30C25.5817 30 22 33.3579 22 37.5C22 41.6421 25.5817 45 30 45Z" fill="white"/>
</g>
</svg>
