<svg width="60" height="60" viewBox="0 0 60 60" fill="none" xmlns="http://www.w3.org/2000/svg">
<g id="Component 3">
<path id="Vector" d="M30 59C46.0163 59 59 46.0163 59 30C59 13.9837 46.0163 1 30 1C13.9837 1 1 13.9837 1 30C1 46.0163 13.9837 59 30 59Z" fill="white"/>
<path id="Vector_2" d="M30 1.2C35.6961 1.2 41.2643 2.88909 46.0004 6.05367C50.7366 9.21826 54.4279 13.7162 56.6077 18.9787C58.7875 24.2412 59.3579 30.0319 58.2466 35.6186C57.1354 41.2052 54.3924 46.3369 50.3647 50.3647C46.3369 54.3924 41.2053 57.1353 35.6186 58.2466C30.032 59.3579 24.2412 58.7875 18.9787 56.6077C13.7162 54.4279 9.21827 50.7365 6.05369 46.0004C2.8891 41.2643 1.20001 35.6961 1.20001 30C1.20795 22.3642 4.24478 15.0434 9.64411 9.64409C15.0434 4.24477 22.3642 1.20794 30 1.2ZM30 0C24.0666 0 18.2664 1.75947 13.3329 5.05591C8.39943 8.35235 4.55426 13.0377 2.28363 18.5195C0.0129985 24.0013 -0.581101 30.0333 0.576455 35.8527C1.73401 41.6721 4.59123 47.0176 8.78681 51.2132C12.9824 55.4088 18.3279 58.266 24.1473 59.4235C29.9667 60.5811 35.9987 59.987 41.4805 57.7164C46.9623 55.4457 51.6476 51.6006 54.9441 46.6671C58.2405 41.7336 60 35.9334 60 30C60 22.0435 56.8393 14.4129 51.2132 8.78679C45.5871 3.1607 37.9565 0 30 0Z" fill="#FF4A4A"/>
<path id="Vector_3" d="M36.765 28.2415C36.8466 28.6213 36.9094 29.0869 36.9094 29.0869C36.9094 29.191 36.9596 29.4422 36.9784 29.6566C37.0191 30.0837 37.0022 30.5142 36.9282 30.937C36.7274 31.7824 35.51 32.0764 35.2904 32.1622C32.4666 32.9279 28.8082 39.3664 24.3529 39.9545C20.5062 40.4568 14.8461 36.7445 14.0868 31.5189C13.3589 26.5323 17.3436 21.8214 21.0459 21.1047C25.4887 20.247 30.6342 24.9334 33.9852 25.2275C34.6138 25.2405 35.2153 25.4806 35.6732 25.9014C36.237 26.5769 36.613 27.3828 36.765 28.2415Z" fill="#FF4A4A" stroke="#FF4A4A" stroke-width="0.129984" stroke-miterlimit="10"/>
<path id="Vector_4" d="M42.2986 29.2945L34.5344 31C34.3583 30.0067 34.176 29.0134 34 28.0202L42.0534 26.5458C41.1355 25.7712 40.6891 24.8029 40.8966 24.1407C40.9828 23.8913 41.1222 23.6632 41.3052 23.4723C41.5324 23.267 41.8099 23.1248 42.11 23.06C42.5137 22.964 42.9365 22.9835 43.3296 23.1162C43.6896 23.2538 44.0155 23.4669 44.2852 23.7409C44.5532 24.0247 44.7543 24.3643 44.8739 24.7349C44.9935 25.1055 45.0286 25.4979 44.9767 25.8837C44.9767 26.0398 44.7064 27.4017 43.6628 27.6203C43.414 27.6547 43.1607 27.6369 42.9192 27.568C42.6777 27.4992 42.4535 27.3808 42.2608 27.2205L42.2986 29.2945Z" fill="#FF4A4A" stroke="#FF4A4A" stroke-width="0.174752" stroke-miterlimit="10"/>
<path id="Vector_5" d="M44.3833 27.2146C44.8622 27.4642 45.2586 27.8018 45.5389 28.1988C45.8193 28.5959 45.9755 29.0407 45.9942 29.4958C46.0334 30.0011 45.8726 30.5034 45.5343 30.9322C45.196 31.361 44.6973 31.6947 44.1083 31.8864C43.7668 31.9907 43.3975 32.024 43.0354 31.9829C42.6733 31.9419 42.3303 31.828 42.039 31.6521C41.6469 31.3515 41.3699 30.9686 41.2401 30.5479C41.0234 29.679 40.9529 28.791 41.0306 27.9073C41.3221 27.5796 41.7175 27.3191 42.1765 27.1521C42.5302 27.042 42.9085 26.9906 43.2881 27.0014C43.6677 27.0121 44.0404 27.0847 44.3833 27.2146Z" fill="#FF4A4A" stroke="#FF4A4A" stroke-width="0.181968" stroke-miterlimit="10"/>
</g>
</svg>
