<svg width="19" height="21" viewBox="0 0 19 21" fill="none" xmlns="http://www.w3.org/2000/svg">
<path id="Vector" d="M9.5 0C7.73 0 6.17 1.17 5.67 2.87C5.14 2.63 4.58 2.5 4 2.5C2.93913 2.5 1.92172 2.92143 1.17157 3.67157C0.421427 4.42172 0 5.43913 0 6.5C0 8.32 1.24 9.91 3 10.37V17.5H16V10.37C17.76 9.91 19 8.32 19 6.5C19 5.43913 18.5786 4.42172 17.8284 3.67157C17.0783 2.92143 16.0609 2.5 15 2.5C14.42 2.5 13.86 2.63 13.33 2.87C12.83 1.17 11.27 0 9.5 0ZM9 9H10V16H9V9ZM6 11H7V16H6V11ZM12 11H13V16H12V11ZM3 18.5V19.5C3 19.7652 3.10536 20.0196 3.29289 20.2071C3.48043 20.3946 3.73478 20.5 4 20.5H15C15.2652 20.5 15.5196 20.3946 15.7071 20.2071C15.8946 20.0196 16 19.7652 16 19.5V18.5H3Z" fill="#2F2E41"/>
</svg>
