<svg width="46" height="64" viewBox="0 0 46 64" fill="none" xmlns="http://www.w3.org/2000/svg">
<path id="Vector" d="M29.7842 3.2V35.2L40.3741 29.792L41.1022 29.696C42.0619 29.696 42.9223 30.08 43.5511 30.72L46 33.184L29.7842 46.624C28.9237 47.488 27.7655 48 26.4748 48H4.96403C2.41583 48 0 45.76 0 43.2V29.248C0 27.296 1.15827 25.6 2.81295 24.96L19.1612 17.92L23.1655 17.504V3.2C23.1655 2.35131 23.5141 1.53737 24.1348 0.937258C24.7554 0.337142 25.5971 0 26.4748 0C27.3525 0 28.1943 0.337142 28.8149 0.937258C29.4355 1.53737 29.7842 2.35131 29.7842 3.2ZM0 54.4H26.4748V64H0V54.4Z" fill="#FF4A4A"/>
</svg>
