<svg width="16" height="21" viewBox="0 0 16 21" fill="none" xmlns="http://www.w3.org/2000/svg">
<path id="Vector" d="M10.94 17.5017L8 15.7715L5.06001 17.5017L5.84 14.1613L3.25001 11.9211L6.66 11.6311L8 8.5008L9.34 11.6311L12.75 11.9211L10.16 14.1613M16 0H1.18341e-05V2.00019L4.86 5.64053C3.16442 6.36419 1.77077 7.6513 0.914746 9.28419C0.0587265 10.9171 -0.207126 12.7955 0.162151 14.6019C0.531427 16.4082 1.51317 18.0316 2.94134 19.1974C4.36952 20.3632 6.15647 21 8 21C9.84353 21 11.6305 20.3632 13.0587 19.1974C14.4868 18.0316 15.4686 16.4082 15.8378 14.6019C16.2071 12.7955 15.9413 10.9171 15.0853 9.28419C14.2292 7.6513 12.8356 6.36419 11.14 5.64053L16 2.00019M14 13.0012C14.0005 14.1376 13.6784 15.2508 13.0711 16.2112C12.4638 17.1717 11.5962 17.9399 10.5694 18.4266C9.54261 18.9132 8.39873 19.0982 7.27088 18.9601C6.14303 18.8221 5.07757 18.3665 4.19847 17.6465C3.31937 16.9265 2.66277 15.9717 2.30507 14.893C1.94736 13.8144 1.90326 12.6564 2.1779 11.5537C2.45253 10.451 3.03461 9.44901 3.8564 8.66423C4.67819 7.87944 5.70592 7.34416 6.82 7.12067C7.59853 6.96061 8.40147 6.96061 9.18 7.12067C10.5389 7.39328 11.7616 8.12798 12.6402 9.19997C13.5189 10.272 13.9993 11.6151 14 13.0012ZM8.63 5.00047H7.37L3.37001 2.00019H12.71L8.63 5.00047Z" fill="#FF4A4A"/>
</svg>
