<svg width="66" height="66" viewBox="0 0 66 66" fill="none" xmlns="http://www.w3.org/2000/svg">
<path id="Vector" d="M61.5267 0H30.14C27.6833 0 25.6667 2.01667 25.6667 4.47333V18.3333H47.6667V40.3333H61.5267C63.9833 40.3333 66 38.3167 66 35.86V4.47333C66 2.01667 63.9833 0 61.5267 0ZM34.6133 13.4567C32.12 13.4567 30.1033 11.44 30.1033 8.94667C30.1033 6.45333 32.12 4.43667 34.6133 4.43667C35.8095 4.43667 36.9566 4.91183 37.8024 5.75762C38.6482 6.6034 39.1233 7.75054 39.1233 8.94667C39.1233 11.44 37.1067 13.4567 34.6133 13.4567ZM57.0533 35.86C54.56 35.8967 52.5433 33.88 52.5067 31.3867C52.47 28.8933 54.4867 26.8767 56.98 26.84C59.4733 26.8033 61.49 28.82 61.5267 31.3867C61.49 33.8433 59.51 35.8233 57.0533 35.86ZM57.0533 13.4567C54.56 13.4933 52.5433 11.4767 52.5067 8.98333C52.47 6.49 54.4867 4.47333 56.98 4.43667C59.4733 4.4 61.49 6.41667 61.5267 8.94667C61.5267 11.44 59.5467 13.42 57.0533 13.4567ZM4.47333 25.6667H35.86C37.0464 25.6667 38.1842 26.138 39.0231 26.9769C39.862 27.8158 40.3333 28.9536 40.3333 30.14V61.5267C40.3333 63.9833 38.3167 66 35.86 66H4.47333C2.01667 66 0 63.9833 0 61.5267V30.14C0 27.6833 2.01667 25.6667 4.47333 25.6667ZM20.1667 41.36C17.71 41.36 15.6933 43.3767 15.6933 45.8333C15.6933 48.29 17.71 50.3067 20.1667 50.3067C22.6233 50.3067 24.64 48.29 24.64 45.8333C24.64 44.6469 24.1687 43.5091 23.3298 42.6702C22.4909 41.8313 21.3531 41.36 20.1667 41.36ZM8.94667 30.14C6.49 30.14 4.47333 32.1567 4.47333 34.6133C4.47333 35.2008 4.58904 35.7825 4.81385 36.3252C5.03865 36.8679 5.36815 37.3611 5.78354 37.7765C6.19893 38.1918 6.69207 38.5213 7.2348 38.7462C7.77753 38.971 8.35922 39.0867 8.94667 39.0867C11.4033 39.0867 13.42 37.07 13.42 34.6133C13.42 32.1567 11.4033 30.14 8.94667 30.14ZM31.35 52.5433C28.8933 52.5433 26.8767 54.56 26.8767 57.0167C26.8767 59.4733 28.8933 61.49 31.35 61.49C32.5364 61.49 33.6742 61.0187 34.5131 60.1798C35.352 59.3409 35.8233 58.2031 35.8233 57.0167C35.8233 54.56 33.8433 52.58 31.3867 52.5433H31.35Z" fill="#FF4A4A"/>
</svg>
