<svg width="12" height="16" viewBox="0 0 12 16" fill="none" xmlns="http://www.w3.org/2000/svg">
<path id="Vector" d="M6 0L3 2.90909H5.25V9.45455H6.75V2.90909H9M10.5 16H1.5C0.6675 16 0 15.3455 0 14.5455V5.81818C0 5.43241 0.158035 5.06244 0.43934 4.78966C0.720644 4.51688 1.10218 4.36364 1.5 4.36364H3.75V5.81818H1.5V14.5455H10.5V5.81818H8.25V4.36364H10.5C10.8978 4.36364 11.2794 4.51688 11.5607 4.78966C11.842 5.06244 12 5.43241 12 5.81818V14.5455C12 14.9312 11.842 15.3012 11.5607 15.574C11.2794 15.8468 10.8978 16 10.5 16Z" fill="#FF4A4A"/>
</svg>
