<svg width="30" height="23" viewBox="0 0 30 23" fill="none" xmlns="http://www.w3.org/2000/svg">
<path id="Vector" d="M29.5848 12.5174L19.5843 22.5783C18.6914 23.4765 17.1437 22.8477 17.1437 21.5602V15.8111H9.04807C8.25636 15.8111 7.61943 15.1704 7.61943 14.3739V8.62484C7.61943 7.82836 8.25636 7.18758 9.04807 7.18758H17.1437V1.43853C17.1437 0.156977 18.6854 -0.477813 19.5843 0.420475L29.5848 10.4813C30.1384 11.0442 30.1384 11.9545 29.5848 12.5174ZM11.4291 22.2788V19.8834C11.4291 19.4881 11.1077 19.1648 10.7148 19.1648H5.71457C4.66095 19.1648 3.80971 18.3084 3.80971 17.2484V5.75032C3.80971 4.69034 4.66095 3.83397 5.71457 3.83397H10.7148C11.1077 3.83397 11.4291 3.51059 11.4291 3.11534V0.719904C11.4291 0.324657 11.1077 0.00127369 10.7148 0.00127369H5.71457C2.55965 0.00127369 0 2.57637 0 5.75032V17.2484C0 20.4224 2.55965 22.9975 5.71457 22.9975H10.7148C11.1077 22.9975 11.4291 22.6741 11.4291 22.2788Z" fill="#FF4A4A"/>
</svg>
