<svg width="74" height="74" viewBox="0 0 74 74" fill="none" xmlns="http://www.w3.org/2000/svg">
<g id="undraw_pic_profile_re_7g2h" clip-path="url(#clip0_74_1662)">
<g id="Group">
<g id="Group_2">
<path id="Vector" d="M37.6619 48.3056C44.2954 48.3056 49.6729 42.9281 49.6729 36.2946C49.6729 29.6612 44.2954 24.2837 37.6619 24.2837C31.0285 24.2837 25.651 29.6612 25.651 36.2946C25.651 42.9281 31.0285 48.3056 37.6619 48.3056Z" fill="#A0616A"/>
<path id="Vector_2" d="M27.7205 50.995L30.2242 44.5965L43.1603 42.6492L44.5502 56.813L31.475 57.0912L27.7205 50.995Z" fill="#A0616A"/>
</g>
<path id="Vector_3" d="M49.7893 38.5107C49.6334 39.1352 49.3183 40.6222 48.8262 40.6295C48.4241 40.6354 48.0393 34.1845 48.4409 33.1174C48.9022 31.8916 47.69 30.341 46.7768 29.545C45.1348 28.1137 41.4901 31.187 37.7839 29.7948C37.6857 29.7579 37.7053 29.7621 36.5349 29.2952C32.9337 27.8583 32.7444 27.8169 32.5381 27.7964C30.7924 27.6236 28.6619 29.0522 27.7919 30.794C26.8875 32.6045 27.6431 34.1575 26.7927 38.5378C26.6936 39.0484 26.5379 39.7761 26.2931 39.7868C25.8454 39.8063 25.4083 37.4154 25.2939 36.7892C24.8143 34.1656 24.3519 31.6361 25.2939 28.7956C25.3966 28.4858 26.0299 27.3358 27.2923 25.0486C29.1109 21.7536 30.0256 20.0999 30.2899 19.8027C32.1856 17.6709 35.6362 15.7261 38.5333 16.5553C39.9976 16.9744 39.7351 17.6482 41.5309 18.3039C44.7313 19.4724 47.5128 18.0434 48.0258 19.0533C48.2975 19.5883 47.5372 20.0294 47.5262 21.0517C47.5072 22.806 49.7259 23.3129 51.0234 25.0486C51.7209 25.9816 52.9148 25.9917 49.7893 38.5107Z" fill="#2F2E41"/>
</g>
<path id="Vector_4" d="M64.6693 61.5661C64.1852 62.1099 63.6831 62.6427 63.1629 63.163C56.1746 70.1511 46.8829 74 37 74C28.458 74 20.3584 71.1248 13.8054 65.8322C13.8013 65.8295 13.7985 65.8266 13.7943 65.8224C12.925 65.1215 12.0834 64.3759 11.2711 63.5885C11.2864 63.4662 11.3031 63.3451 11.3211 63.2254C11.4352 62.4187 11.5618 61.6495 11.7037 60.9415C12.8651 55.1384 28.1478 49.0459 28.5456 48.8872C28.5512 48.8859 28.554 48.8845 28.554 48.8845C28.554 48.8845 30.5208 56.1343 38.9488 56.0411C44.6893 55.9785 43.5765 48.8845 43.5765 48.8845C43.5765 48.8845 43.6461 48.8984 43.7768 48.9262C45.4349 49.2782 56.9466 51.8069 61.4882 55.258C62.8722 56.3095 63.8653 58.5491 64.5789 61.2197C64.6095 61.3338 64.6387 61.4506 64.6693 61.5661Z" fill="#FF4A4A"/>
<path id="Vector_5" d="M63.1629 10.8371C56.1746 3.84896 46.8829 0 37 0C27.1171 0 17.8254 3.84896 10.8371 10.8371C3.84886 17.8254 0 27.1171 0 37C0 46.0206 3.20621 54.5486 9.0817 61.2823C9.64227 61.9263 10.2279 62.5536 10.8371 63.163C10.9804 63.3062 11.125 63.4495 11.2711 63.5886C12.0834 64.3759 12.925 65.1215 13.7943 65.8224C13.7985 65.8267 13.8013 65.8295 13.8055 65.8322C20.3584 71.1249 28.458 74 37 74C46.8829 74 56.1746 70.1512 63.1629 63.163C63.6831 62.6428 64.1853 62.11 64.6693 61.5661C70.702 54.7893 74 46.1485 74 37C74 27.1171 70.1512 17.8254 63.1629 10.8371ZM64.5789 61.2197C63.4842 62.4647 62.3074 63.6359 61.0556 64.7223C58.6812 66.7878 56.0383 68.5516 53.1882 69.9565C52.1881 70.4503 51.1629 70.8995 50.1141 71.3016C46.04 72.8651 41.618 73.7218 37 73.7218C32.5433 73.7218 28.2702 72.9235 24.3157 71.463C22.6924 70.8647 21.1234 70.154 19.617 69.3402C19.3958 69.2207 19.176 69.0997 18.9576 68.9759C17.8087 68.3248 16.6973 67.6141 15.6304 66.8463C14.1017 65.7502 12.6607 64.5386 11.3212 63.2255C10.57 62.4897 9.85231 61.7233 9.16656 60.9263C3.62907 54.4944 0.278196 46.1318 0.278196 37C0.278196 16.7516 16.7515 0.278196 37 0.278196C57.2485 0.278196 73.7218 16.7516 73.7218 37C73.7218 46.2723 70.268 54.7517 64.5789 61.2197Z" fill="#2F2E41"/>
</g>
<defs>
<clipPath id="clip0_74_1662">
<rect width="74" height="74" fill="white"/>
</clipPath>
</defs>
</svg>
