<svg width="74" height="74" viewBox="0 0 74 74" fill="none" xmlns="http://www.w3.org/2000/svg">
<g id="undraw_profile_pic_re_iwgo 1" clip-path="url(#clip0_74_1687)">
<g id="Group">
<path id="Vector" d="M41.3198 53.8615L43.0809 42.8546L31.1934 38.0116L29.4323 54.7421L41.3198 53.8615Z" fill="#A0616A"/>
<path id="Vector_2" d="M53.267 70.1282C52.2464 70.6258 51.2064 71.075 50.1508 71.4735C48.0395 72.2724 45.8603 72.8751 43.6246 73.2776C41.4395 73.6721 39.1961 73.8724 36.9527 73.8724C33.9219 73.8724 30.9087 73.5088 27.9946 72.7895C26.8534 72.5097 25.7025 72.1676 24.5711 71.7689C24.4525 71.7262 24.332 71.6835 24.2134 71.6406C22.8098 71.1314 21.4295 70.5345 20.1018 69.86C19.9229 69.7706 19.7441 69.6791 19.5652 69.5819C19.3669 69.4809 19.1706 69.374 18.9723 69.2631C18.7196 69.1251 18.4688 68.9812 18.218 68.8354C17.3782 68.3494 16.552 67.8244 15.7627 67.2782L15.7102 67.2433C15.6635 67.2103 15.6169 67.1791 15.5722 67.1461C15.6013 66.9925 15.6286 66.8524 15.6538 66.7281C15.751 66.2402 15.8152 65.9719 15.8152 65.9719L21.1379 54.9763L22.6213 51.9126L23.3444 51.6151L28.8072 49.3698H42.1588L46.3715 51.1116C46.3715 51.1116 46.393 51.1913 46.4357 51.3449C46.8556 52.8516 49.3051 61.4053 53.1057 69.7744C53.1582 69.8909 53.2126 70.0096 53.267 70.1282Z" fill="#FF4A4A"/>
<path id="Vector_3" d="M38.3157 46.393C45.0107 46.393 50.438 40.9656 50.438 34.2707C50.438 27.5757 45.0107 22.1483 38.3157 22.1483C31.6207 22.1483 26.1934 27.5757 26.1934 34.2707C26.1934 40.9656 31.6207 46.393 38.3157 46.393Z" fill="#A0616A"/>
<path id="Vector_4" d="M23.3656 51.5107L23.3448 51.6151L19.649 69.1873L19.617 69.3403L19.5655 69.5823C19.3666 69.4808 19.1705 69.3737 18.9729 69.2638C18.7198 69.1247 18.4694 68.9814 18.2176 68.8354C17.3789 68.3499 16.5526 67.8241 15.7626 67.2789L15.7097 67.2427C15.6638 67.2107 15.6165 67.1787 15.572 67.1467C14.9683 66.7253 14.3799 66.2857 13.8055 65.8322C13.8013 65.8295 13.7985 65.8267 13.7943 65.8225C12.7692 64.9963 11.7816 64.1074 10.8371 63.163C10.2279 62.5537 9.64226 61.9264 9.0817 61.2824L9.16655 60.9263L9.1749 60.8901L9.28061 60.4366C10.2209 56.4654 13.4021 53.4178 17.4095 52.65L22.7341 51.6304L23.3656 51.5107Z" fill="#FF4A4A"/>
<path id="Vector_5" d="M61.119 64.99C59.5502 66.3256 57.8686 67.5349 56.0937 68.5963C55.9207 68.7013 55.7437 68.8042 55.5668 68.9073C54.8126 69.3428 54.0447 69.7491 53.267 70.1282C52.2464 70.6258 51.2064 71.075 50.1508 71.4735L50.0691 71.0885L45.8953 51.2418L46.4357 51.3449L51.8518 52.383C55.8585 53.1509 59.0409 56.1991 59.9798 60.1707L61.016 64.5585L61.119 64.99Z" fill="#FF4A4A"/>
<path id="Vector_6" d="M52.2756 37.5111C51.9606 38.6853 50.3763 43.9323 46.319 45.0365C45.522 45.2542 43.6207 45.505 44.1243 45.0365C44.2389 44.9296 44.3497 44.8246 44.4606 44.7215C48.8638 40.5808 50.6601 38.0497 49.8397 32.4314C49.3187 28.8543 43.3855 25.6058 40.0476 25.283C38.6401 25.1471 36.8438 25.6232 35.658 26.85C33.7003 28.8717 34.023 35.0773 32.9383 38.7223C32.6467 39.6982 32.2559 40.4913 31.6941 40.9715C31.3441 41.2709 31.1206 40.8898 30.9553 40.2658C30.6035 38.9399 30.5121 36.5119 30.0125 37.1981C28.5681 39.1869 29.9444 41.8229 30.3605 42.8397C30.446 43.0478 30.5335 43.2479 30.6209 43.4385V43.4404C30.6715 43.5492 30.724 43.6582 30.7745 43.7613V43.7632C32.1625 46.5936 33.8305 47.6064 35.3002 49.3697C35.8776 50.0598 36.4239 50.8627 36.9119 51.9359C37.2462 52.6708 37.4873 53.4095 37.6526 54.1345C38.4943 57.7699 37.4951 61.0729 37.2248 61.971C36.6591 63.8412 35.6871 67.0546 32.8352 68.8684C29.2543 71.1469 25.9864 69.1387 24.4234 71.3024C24.4039 71.3277 24.3864 71.3529 24.3689 71.3782C24.3106 71.4657 24.2581 71.5532 24.2134 71.6405C22.8098 71.1314 21.4295 70.5345 20.1018 69.86C19.9229 69.7705 19.7441 69.679 19.5652 69.5818C19.3669 69.4808 19.1706 69.3739 18.9723 69.2631C18.9645 69.1114 18.9567 68.9599 18.9509 68.8063C18.8362 66.176 19.0092 63.2852 19.6644 60.4021C20.0843 58.5612 20.5003 56.7356 21.1379 54.9763C21.554 53.8294 22.0633 52.7095 22.734 51.6306C23.2706 50.7636 23.9082 49.9218 24.6819 49.113C26.381 47.3382 27.8915 46.5976 28.1307 44.7234C28.4728 42.0484 25.687 41.2437 24.6819 37.198C23.9957 34.4318 23.2783 30.4446 23.9743 27.7579C24.6314 25.219 25.2029 23.0164 27.11 20.8584C27.5688 20.3413 31.3344 16.7448 35.6968 16.1538C37.7069 15.8837 39.4994 18.4576 41.9294 19.0116C44.723 19.6474 46.3229 20.011 47.8859 21.2064C50.5279 23.2243 51.2724 26.2416 51.9626 29.0449C52.503 31.2378 53.2029 34.0741 52.2756 37.5111Z" fill="#2F2E41"/>
</g>
<path id="Vector_7" d="M63.1629 10.8371C56.1746 3.84883 46.8829 0 37 0C27.1171 0 17.8254 3.84883 10.8371 10.8371C3.84883 17.8254 0 27.1171 0 37C0 46.0205 3.2062 54.5486 9.08169 61.2823C9.64226 61.9263 10.2279 62.5536 10.8371 63.1629C11.7816 64.1074 12.7692 64.9962 13.7943 65.8224C13.7985 65.8266 13.8013 65.8294 13.8055 65.8322C20.3583 71.1248 28.458 74 37 74C46.8829 74 56.1746 70.1512 63.1629 63.1629C70.1512 56.1746 74 46.8829 74 37C74 27.1171 70.1512 17.8254 63.1629 10.8371ZM61.0556 64.7222C58.6812 66.7878 56.0383 68.5515 53.1882 69.9564C52.1881 70.4502 51.1629 70.8995 50.1141 71.3015C46.04 72.865 41.618 73.7218 37 73.7218C32.5433 73.7218 28.2702 72.9234 24.3157 71.4629C22.6924 70.8647 21.1234 70.1539 19.617 69.3402C19.3958 69.2206 19.176 69.0996 18.9576 68.9758C17.8087 68.3248 16.6973 67.614 15.6304 66.8462C13.2463 65.1353 11.075 63.1462 9.16655 60.9262C3.62906 54.4943 0.278196 46.1318 0.278196 37C0.278196 16.7515 16.7515 0.278196 37 0.278196C57.2485 0.278196 73.7218 16.7515 73.7218 37C73.7218 48.0555 68.8117 57.9857 61.0556 64.7222Z" fill="#2F2E41"/>
</g>
<defs>
<clipPath id="clip0_74_1687">
<rect width="74" height="74" fill="white"/>
</clipPath>
</defs>
</svg>
