<svg width="74" height="74" viewBox="0 0 74 74" fill="none" xmlns="http://www.w3.org/2000/svg">
<g id="undraw_female_avatar_efig 1" clip-path="url(#clip0_74_1648)">
<path id="Vector" d="M52.7445 52.725H34.2445V27.6874L50.2407 36.4505L52.7445 52.725Z" fill="#2F2E41"/>
<path id="Vector_2" d="M37.6621 48.3061C44.2956 48.3061 49.6731 42.9286 49.6731 36.2951C49.6731 29.6617 44.2956 24.2842 37.6621 24.2842C31.0286 24.2842 25.6512 29.6617 25.6512 36.2951C25.6512 42.9286 31.0286 48.3061 37.6621 48.3061Z" fill="#FFB6B6"/>
<path id="Vector_3" d="M30.767 50.0821L30.2244 44.597L41.0603 42.5708L47.4588 58.1497L36.3309 70.9467L28.4024 55.3678L30.767 50.0821Z" fill="#FFB6B6"/>
<path id="Vector_4" d="M63.5732 62.7457C63.4383 62.8861 63.3006 63.0252 63.1629 63.1629C62.7261 63.5997 62.281 64.024 61.8262 64.4357C55.0104 70.6172 46.2653 74.0001 37 74.0001C28.458 74.0001 20.3583 71.1249 13.8055 65.8322C13.8013 65.8294 13.7985 65.8267 13.7943 65.8225C13.5954 65.6625 13.3993 65.4998 13.2032 65.3343C13.2379 65.2341 13.2755 65.1354 13.313 65.038C15.4204 59.5478 19.5822 56.8618 22.1082 55.6864C23.3601 55.1036 24.21 54.8908 24.21 54.8908L27.1755 49.5495L29.2634 53.4442L30.8018 56.3152L37.1141 68.0926L42.5597 54.5333L44.247 50.3298L44.6796 49.2532L46.7368 50.8542L48.6842 52.369L52.6054 53.2342L55.7865 53.9366L60.1069 54.8908C61.854 56.3138 62.9167 59.0206 63.5106 62.384C63.5329 62.5036 63.5538 62.6246 63.5732 62.7457Z" fill="#FF4A4A"/>
<path id="Vector_5" d="M31.3442 22.6455C32.8073 20.1879 35.4943 18.5017 38.3436 18.2532C41.1929 18.0047 44.1313 19.2002 45.9977 21.3674C47.1099 22.6588 47.8392 24.2404 48.9233 25.5555C51.2563 28.3855 55.2345 30.0402 56.2536 33.5634C56.6984 35.1009 56.4768 36.7423 56.2517 38.3268C56.0589 39.685 55.866 41.0432 55.6731 42.4013C55.523 43.4583 55.3791 44.5725 55.7754 45.5638C56.2404 46.7268 57.3531 47.4885 58.0725 48.5137C59.2967 50.2582 59.2072 52.8123 57.8639 54.4669C57.2814 55.1844 56.5091 55.7255 55.8983 56.4192C55.2876 57.1129 54.8346 58.0614 55.0904 58.9495C55.5804 60.6508 58.2485 61.0588 58.5412 62.805C58.6908 63.6977 58.0741 64.5893 57.2662 64.9975C56.4583 65.4057 55.5072 65.4176 54.6086 65.3084C51.1933 64.8933 48.0311 62.7592 46.3683 59.7473C44.7054 56.7354 44.5843 52.9224 46.0527 49.811C47.2588 47.2556 49.5003 44.9975 49.4759 42.1718C49.4626 40.6325 48.7565 39.1947 48.0661 37.8188C46.653 35.0026 45.2398 32.1865 43.8267 29.3704C43.0697 27.8619 42.1913 26.2363 40.6329 25.5882C39.4284 25.0874 38.0619 25.2816 36.7737 25.4865C35.4855 25.6913 34.1209 25.8907 32.9129 25.3986C31.7049 24.9065 30.7921 23.4443 31.3677 22.2738" fill="#2F2E41"/>
<path id="Vector_6" d="M33.449 22.7739C31.1285 22.0101 28.5254 23.2363 26.9544 25.1072C25.3834 26.9781 24.6213 29.3783 23.8953 31.711C23.4795 33.0471 23.0637 34.3833 22.6478 35.7194C22.2567 36.9763 21.8655 38.2333 21.4743 39.4902C21.0142 40.9686 20.5503 42.5393 20.9279 44.0409C21.2009 45.1265 21.9034 46.1122 21.9185 47.2315C21.9343 48.4007 21.2021 49.4272 20.5604 50.4047C19.9187 51.3822 19.3164 52.5436 19.6221 53.6723C20.0871 55.389 22.4739 56.3326 22.343 58.1063C22.2994 58.6983 21.9571 59.2458 21.9633 59.8394C21.9712 60.5946 22.5624 61.2471 23.2551 61.548C23.9478 61.8488 24.727 61.8652 25.4821 61.8519C27.7983 61.8112 30.1103 61.5361 32.3713 61.0323C33.2413 60.8384 34.1259 60.6007 34.85 60.0811C35.5741 59.5615 36.1143 58.7006 36.0201 57.8144C35.8732 56.4333 34.3884 55.6498 33.639 54.4804C32.903 53.3319 32.9201 51.8766 32.6027 50.5499C32.1665 48.7265 31.0893 47.1347 30.2806 45.4433C27.2403 39.0843 28.3046 30.9789 32.8834 25.6203C33.2883 25.1465 33.7306 24.6699 33.8995 24.07C34.0684 23.4701 33.8506 22.7058 33.2638 22.496" fill="#2F2E41"/>
<path id="Vector_7" d="M13.8055 65.8322C14.345 66.268 14.895 66.6873 15.4549 67.0901L13.8055 65.8322ZM13.8055 65.8322C13.8013 65.8294 13.7985 65.8266 13.7943 65.8224M13.8055 65.8322L13.7943 65.8224M13.7943 65.8224C13.5954 65.6625 13.3993 65.4997 13.2032 65.3342L13.7943 65.8224Z" fill="#2F2E41" stroke="black"/>
</g>
<defs>
<clipPath id="clip0_74_1648">
<rect width="74" height="74" fill="white"/>
</clipPath>
</defs>
</svg>
