<svg width="74" height="74" viewBox="0 0 74 74" fill="none" xmlns="http://www.w3.org/2000/svg">
<g id="undraw_female_avatar_efig 2" clip-path="url(#clip0_74_1702)">
<path id="Vector" d="M21.2555 52.725H39.7555V27.6874L23.7593 36.4505L21.2555 52.725Z" fill="#2F2E41"/>
<path id="Vector_2" d="M36.3379 48.3061C29.7044 48.3061 24.3269 42.9286 24.3269 36.2951C24.3269 29.6617 29.7044 24.2842 36.3379 24.2842C42.9714 24.2842 48.3488 29.6617 48.3488 36.2951C48.3488 42.9286 42.9714 48.3061 36.3379 48.3061Z" fill="#FFB6B6"/>
<path id="Vector_3" d="M43.233 50.0821L43.7756 44.597L32.9397 42.5708L26.5412 58.1497L37.6691 70.9467L45.5976 55.3678L43.233 50.0821Z" fill="#FFB6B6"/>
<path id="Vector_4" d="M10.4268 62.7457C10.5617 62.8861 10.6994 63.0252 10.8371 63.1629C11.2739 63.5997 11.719 64.024 12.1738 64.4357C18.9896 70.6172 27.7347 74.0001 37 74.0001C45.542 74.0001 53.6417 71.1249 60.1945 65.8322C60.1987 65.8294 60.2015 65.8267 60.2057 65.8225C60.4046 65.6625 60.6007 65.4998 60.7968 65.3343C60.7621 65.2341 60.7245 65.1354 60.687 65.038C58.5796 59.5478 54.4178 56.8618 51.8918 55.6864C50.6399 55.1036 49.79 54.8908 49.79 54.8908L46.8245 49.5495L44.7366 53.4442L43.1982 56.3152L36.8859 68.0926L31.4403 54.5333L29.753 50.3298L29.3204 49.2532L27.2632 50.8542L25.3158 52.369L21.3946 53.2342L18.2135 53.9366L13.8931 54.8908C12.146 56.3138 11.0833 59.0206 10.4894 62.384C10.4671 62.5036 10.4462 62.6246 10.4268 62.7457Z" fill="#FF4A4A"/>
<path id="Vector_5" d="M42.6558 22.6455C41.1927 20.1879 38.5057 18.5017 35.6564 18.2532C32.8071 18.0047 29.8687 19.2002 28.0023 21.3674C26.8901 22.6588 26.1608 24.2404 25.0767 25.5555C22.7437 28.3855 18.7655 30.0402 17.7464 33.5634C17.3016 35.1009 17.5232 36.7423 17.7483 38.3268C17.9411 39.685 18.134 41.0432 18.3269 42.4013C18.477 43.4583 18.6209 44.5725 18.2246 45.5638C17.7596 46.7268 16.6469 47.4885 15.9275 48.5137C14.7033 50.2582 14.7928 52.8123 16.1361 54.4669C16.7186 55.1844 17.4909 55.7255 18.1017 56.4192C18.7124 57.1129 19.1654 58.0614 18.9096 58.9495C18.4196 60.6508 15.7515 61.0588 15.4588 62.805C15.3092 63.6977 15.9259 64.5893 16.7338 64.9975C17.5417 65.4057 18.4928 65.4176 19.3914 65.3084C22.8067 64.8933 25.9689 62.7592 27.6317 59.7473C29.2946 56.7354 29.4157 52.9224 27.9473 49.811C26.7412 47.2556 24.4997 44.9975 24.5241 42.1718C24.5374 40.6325 25.2435 39.1947 25.9339 37.8188C27.347 35.0026 28.7602 32.1865 30.1733 29.3704C30.9303 27.8619 31.8087 26.2363 33.3671 25.5882C34.5716 25.0874 35.9381 25.2816 37.2263 25.4865C38.5145 25.6913 39.8791 25.8907 41.0871 25.3986C42.2951 24.9065 43.2079 23.4443 42.6323 22.2738" fill="#2F2E41"/>
<path id="Vector_6" d="M40.551 22.7739C42.8715 22.0101 45.4746 23.2363 47.0456 25.1072C48.6166 26.9781 49.3787 29.3783 50.1047 31.711C50.5205 33.0471 50.9363 34.3833 51.3522 35.7194C51.7434 36.9763 52.1345 38.2333 52.5257 39.4902C52.9858 40.9686 53.4497 42.5393 53.0721 44.0409C52.7991 45.1265 52.0966 46.1122 52.0815 47.2315C52.0657 48.4007 52.7979 49.4272 53.4396 50.4047C54.0813 51.3822 54.6836 52.5436 54.3779 53.6723C53.9129 55.389 51.5261 56.3326 51.657 58.1063C51.7006 58.6983 52.0429 59.2458 52.0367 59.8394C52.0288 60.5946 51.4376 61.2471 50.7449 61.548C50.0522 61.8488 49.273 61.8652 48.5179 61.8519C46.2017 61.8112 43.8897 61.5361 41.6287 61.0323C40.7587 60.8384 39.8741 60.6007 39.15 60.0811C38.4259 59.5615 37.8857 58.7006 37.9799 57.8144C38.1268 56.4333 39.6117 55.6498 40.361 54.4804C41.097 53.3319 41.0799 51.8766 41.3973 50.5499C41.8335 48.7265 42.9107 47.1347 43.7194 45.4433C46.7597 39.0843 45.6954 30.9789 41.1166 25.6203C40.7117 25.1465 40.2694 24.6699 40.1005 24.07C39.9316 23.4701 40.1494 22.7058 40.7362 22.496" fill="#2F2E41"/>
<path id="Vector_7" d="M10.8371 10.8371C17.8254 3.84883 27.1171 0 37 0C46.8829 0 56.1746 3.84883 63.1629 10.8371C70.1512 17.8254 74 27.1171 74 37C74 46.0205 70.7938 54.5486 64.9183 61.2823C64.3577 61.9263 63.7721 62.5536 63.1629 63.1629C63.0196 63.3062 62.875 63.4494 62.7289 63.5885C62.3394 63.9655 61.943 64.3341 61.5396 64.6916C61.2948 64.91 61.0472 65.1242 60.7968 65.3342C60.6007 65.4997 60.4046 65.6625 60.2057 65.8224C60.2015 65.8266 60.1987 65.8294 60.1945 65.8322C53.6417 71.1248 45.542 74 37 74C27.7347 74 18.9896 70.6171 12.1738 64.4356C11.719 64.0239 11.2739 63.5997 10.8371 63.1629C10.6994 63.0252 10.5617 62.8861 10.4268 62.7456C10.0512 62.3589 9.68676 61.9653 9.33067 61.5661C3.298 54.7892 0 46.1485 0 37C0 27.1171 3.84883 17.8254 10.8371 10.8371ZM9.42108 61.2197C9.76883 61.6147 10.1249 62.0042 10.4894 62.3839C11.0569 62.9751 11.6425 63.5482 12.2476 64.1004C12.4771 64.3118 12.7094 64.5177 12.9444 64.7222C15.3188 66.7878 17.9617 68.5515 20.8118 69.9564C21.8119 70.4502 22.8371 70.8995 23.8859 71.3015C27.96 72.865 32.382 73.7218 37 73.7218C41.4567 73.7218 45.7298 72.9234 49.6843 71.4629C51.3076 70.8647 52.8766 70.1539 54.383 69.3402C54.6042 69.2206 54.824 69.0996 55.0424 68.9758C56.1913 68.3248 57.3027 67.614 58.3696 66.8462C59.1666 66.2745 59.94 65.6722 60.687 65.0379C60.9485 64.8168 61.2072 64.5928 61.4617 64.3633C61.8762 63.9947 62.2824 63.615 62.6788 63.2255C63.43 62.4897 64.1477 61.7232 64.8335 60.9262C70.3709 54.4943 73.7218 46.1318 73.7218 37C73.7218 16.7515 57.2485 0.278196 37 0.278196C16.7515 0.278196 0.278191 16.7515 0.278191 37C0.278191 46.2723 3.73199 54.7517 9.42108 61.2197Z" fill="#2F2E41"/>
</g>
<defs>
<clipPath id="clip0_74_1702">
<rect width="74" height="74" fill="white" transform="matrix(-1 0 0 1 74 0)"/>
</clipPath>
</defs>
</svg>
