<svg width="74" height="74" viewBox="0 0 74 74" fill="none" xmlns="http://www.w3.org/2000/svg">
<g id="undraw_male_avatar_g98d 2" clip-path="url(#clip0_74_1696)">
<path id="Vector" d="M36.3379 48.3063C29.7045 48.3063 24.327 42.9288 24.327 36.2954C24.327 29.6619 29.7045 24.2844 36.3379 24.2844C42.9714 24.2844 48.3489 29.6619 48.3489 36.2954C48.3489 42.9288 42.9714 48.3063 36.3379 48.3063Z" fill="#FFB6B6"/>
<path id="Vector_2" d="M43.233 50.0824L43.7756 44.5973L32.9398 42.5712L26.5413 58.1501L37.6691 70.9471L45.5977 55.3682L43.233 50.0824Z" fill="#FFB6B6"/>
<path id="Vector_3" d="M43.9497 47.343L41.5807 47.8783C41.5807 47.8783 43.443 41.9729 42.8109 41.4091C42.1788 40.8454 40.6298 41.7337 40.6298 41.7337L39.0021 43.5586L37.0194 41.54C37.0194 41.54 34.8669 38.8635 34.0241 38.1118C33.1813 37.36 34.535 34.5698 34.535 34.5698C34.535 34.5698 22.0312 31.1982 26.6839 25.1335C26.6839 25.1335 29.4117 20.3785 30.3001 21.9275C31.1884 23.4764 32.2477 21.0163 32.2477 21.0163L35.4822 21.6314C35.4822 21.6314 41.866 17.8674 47.925 25.9198C53.9839 33.9721 43.9497 47.343 43.9497 47.343Z" fill="#2F2E41"/>
<path id="Vector_4" d="M13.7484 65.7862C20.3124 71.1081 28.433 74 37 74C44.8229 74 52.2743 71.588 58.5073 67.1174C58.4962 67.0006 58.485 66.8851 58.4753 66.7697C58.3098 64.9614 58.1623 63.2032 58.065 61.7455C57.688 56.0856 44.4835 52.3132 44.4835 52.3132C44.4835 52.3132 44.4236 52.373 44.304 52.4774C43.5751 53.1172 40.6165 55.4374 35.4282 56.0856C30.8018 56.6642 29.2787 53.9198 28.8183 52.6053C28.6792 52.2047 28.6374 51.9363 28.6374 51.9363L15.0559 58.3501C14.1699 59.6159 13.8235 62.3422 13.7554 65.4065C13.7526 65.5331 13.7498 65.6583 13.7484 65.7862Z" fill="#FF4A4A"/>
<path id="Vector_5" d="M10.8371 10.8371C17.8254 3.84883 27.1171 0 37 0C46.8829 0 56.1746 3.84883 63.1629 10.8371C70.1512 17.8254 74 27.1171 74 37C74 46.0205 70.7938 54.5486 64.9183 61.2823C64.3577 61.9263 63.7721 62.5536 63.1629 63.1629C63.0196 63.3062 62.875 63.4494 62.7289 63.5885C62.3394 63.9655 61.943 64.3341 61.5396 64.6916C61.2948 64.91 61.0472 65.1242 60.7968 65.3342C60.6007 65.4997 60.4046 65.6625 60.2057 65.8224C60.2015 65.8266 60.1987 65.8294 60.1945 65.8322C59.6423 66.2773 59.0804 66.7057 58.5073 67.1174C52.2743 71.5881 44.8229 74 37 74C28.433 74 20.3124 71.1082 13.7484 65.7863C13.2129 65.3523 12.6885 64.9016 12.1738 64.4356C11.719 64.0239 11.2739 63.5997 10.8371 63.1629C10.6994 63.0252 10.5617 62.8861 10.4268 62.7456C10.0512 62.3589 9.68676 61.9653 9.33067 61.5661C3.298 54.7892 0 46.1485 0 37C0 27.1171 3.84883 17.8254 10.8371 10.8371ZM9.42108 61.2197C9.76883 61.6147 10.1249 62.0042 10.4894 62.3839C11.0569 62.9751 11.6425 63.5482 12.2476 64.1004C12.4771 64.3119 12.7094 64.5177 12.9444 64.7222C13.2115 64.9545 13.4813 65.1826 13.7554 65.4065C15.9156 67.18 18.2816 68.7101 20.8118 69.9564C21.8119 70.4502 22.8371 70.8995 23.8859 71.3015C27.96 72.865 32.382 73.7218 37 73.7218C41.4567 73.7218 45.7298 72.9234 49.6843 71.4629C51.3076 70.8647 52.8766 70.154 54.383 69.3402C54.6042 69.2206 54.824 69.0996 55.0424 68.9758C56.1913 68.3248 57.3027 67.614 58.3696 66.8462C58.4044 66.8212 58.4405 66.7947 58.4753 66.7697C59.2348 66.2217 59.9734 65.6444 60.687 65.0379C60.9485 64.8168 61.2072 64.5928 61.4617 64.3633C61.8762 63.9947 62.2824 63.615 62.6788 63.2255C63.43 62.4897 64.1477 61.7232 64.8335 60.9262C70.3709 54.4943 73.7218 46.1318 73.7218 37C73.7218 16.7515 57.2485 0.278196 37 0.278196C16.7515 0.278196 0.278191 16.7515 0.278191 37C0.278191 46.2723 3.73199 54.7517 9.42108 61.2197Z" fill="#2F2E41"/>
</g>
<defs>
<clipPath id="clip0_74_1696">
<rect width="74" height="74" fill="white" transform="matrix(-1 0 0 1 74 0)"/>
</clipPath>
</defs>
</svg>
