<svg width="74" height="74" viewBox="0 0 74 74" fill="none" xmlns="http://www.w3.org/2000/svg">
<g id="undraw_profile_pic_re_iwgo 2" clip-path="url(#clip0_74_1718)">
<g id="Group">
<path id="Vector" d="M32.6802 53.8615L30.9191 42.8546L42.8066 38.0116L44.5677 54.7421L32.6802 53.8615Z" fill="#A0616A"/>
<path id="Vector_2" d="M20.733 70.1282C21.7536 70.6258 22.7936 71.075 23.8492 71.4735C25.9605 72.2724 28.1397 72.8751 30.3754 73.2776C32.5605 73.6721 34.8039 73.8724 37.0473 73.8724C40.0781 73.8724 43.0913 73.5088 46.0054 72.7895C47.1466 72.5097 48.2975 72.1676 49.4289 71.7689C49.5475 71.7262 49.668 71.6835 49.7866 71.6406C51.1902 71.1314 52.5705 70.5345 53.8982 69.86C54.0771 69.7706 54.2559 69.6791 54.4348 69.5819C54.6331 69.4809 54.8294 69.374 55.0277 69.2631C55.2804 69.1251 55.5312 68.9812 55.782 68.8354C56.6218 68.3494 57.448 67.8244 58.2373 67.2782L58.2898 67.2433C58.3365 67.2103 58.3831 67.1791 58.4278 67.1461C58.3987 66.9925 58.3714 66.8524 58.3462 66.7281C58.249 66.2402 58.1848 65.9719 58.1848 65.9719L52.8621 54.9763L51.3787 51.9126L50.6556 51.6151L45.1928 49.3698H31.8412L27.6285 51.1116C27.6285 51.1116 27.607 51.1913 27.5643 51.3449C27.1444 52.8516 24.6949 61.4053 20.8943 69.7744C20.8418 69.8909 20.7874 70.0096 20.733 70.1282Z" fill="#FF4A4A"/>
<path id="Vector_3" d="M35.6843 46.393C28.9893 46.393 23.562 40.9656 23.562 34.2707C23.562 27.5757 28.9893 22.1483 35.6843 22.1483C42.3793 22.1483 47.8066 27.5757 47.8066 34.2707C47.8066 40.9656 42.3793 46.393 35.6843 46.393Z" fill="#A0616A"/>
<path id="Vector_4" d="M50.6344 51.5107L50.6552 51.6151L54.351 69.1873L54.383 69.3403L54.4345 69.5823C54.6334 69.4808 54.8295 69.3737 55.0271 69.2638C55.2802 69.1247 55.5306 68.9814 55.7824 68.8354C56.6211 68.3499 57.4474 67.8241 58.2374 67.2789L58.2903 67.2427C58.3362 67.2107 58.3835 67.1787 58.428 67.1467C59.0317 66.7253 59.6201 66.2857 60.1945 65.8322C60.1987 65.8295 60.2015 65.8267 60.2057 65.8225C61.2308 64.9963 62.2184 64.1074 63.1629 63.163C63.7721 62.5537 64.3577 61.9264 64.9183 61.2824L64.8334 60.9263L64.8251 60.8901L64.7194 60.4366C63.7791 56.4654 60.5979 53.4178 56.5905 52.65L51.2659 51.6304L50.6344 51.5107Z" fill="#FF4A4A"/>
<path id="Vector_5" d="M12.881 64.99C14.4498 66.3256 16.1314 67.5349 17.9063 68.5963C18.0793 68.7013 18.2563 68.8042 18.4332 68.9073C19.1874 69.3428 19.9553 69.7491 20.733 70.1282C21.7536 70.6258 22.7936 71.075 23.8492 71.4735L23.9309 71.0885L28.1047 51.2418L27.5643 51.3449L22.1482 52.383C18.1415 53.1509 14.9591 56.1991 14.0202 60.1707L12.984 64.5585L12.881 64.99Z" fill="#FF4A4A"/>
<path id="Vector_6" d="M21.7244 37.5111C22.0394 38.6853 23.6237 43.9323 27.681 45.0365C28.478 45.2542 30.3793 45.505 29.8757 45.0365C29.7611 44.9296 29.6503 44.8246 29.5394 44.7215C25.1362 40.5808 23.3399 38.0497 24.1603 32.4314C24.6813 28.8543 30.6145 25.6058 33.9524 25.283C35.3599 25.1471 37.1562 25.6232 38.342 26.85C40.2997 28.8717 39.977 35.0773 41.0617 38.7223C41.3533 39.6982 41.7441 40.4913 42.3059 40.9715C42.6559 41.2709 42.8794 40.8898 43.0447 40.2658C43.3965 38.9399 43.4879 36.5119 43.9875 37.1981C45.4319 39.1869 44.0556 41.8229 43.6395 42.8397C43.554 43.0478 43.4665 43.2479 43.3791 43.4385V43.4404C43.3285 43.5492 43.276 43.6582 43.2255 43.7613V43.7632C41.8375 46.5936 40.1695 47.6064 38.6998 49.3697C38.1224 50.0598 37.5761 50.8627 37.0881 51.9359C36.7538 52.6708 36.5127 53.4095 36.3474 54.1345C35.5057 57.7699 36.5049 61.0729 36.7752 61.971C37.3409 63.8412 38.3129 67.0546 41.1648 68.8684C44.7457 71.1469 48.0136 69.1387 49.5766 71.3024C49.5961 71.3277 49.6136 71.3529 49.6311 71.3782C49.6894 71.4657 49.7419 71.5532 49.7866 71.6405C51.1902 71.1314 52.5705 70.5345 53.8982 69.86C54.0771 69.7705 54.2559 69.679 54.4348 69.5818C54.6331 69.4808 54.8294 69.3739 55.0277 69.2631C55.0355 69.1114 55.0433 68.9599 55.0491 68.8063C55.1638 66.176 54.9908 63.2852 54.3356 60.4021C53.9157 58.5612 53.4997 56.7356 52.8621 54.9763C52.446 53.8294 51.9367 52.7095 51.266 51.6306C50.7294 50.7636 50.0918 49.9218 49.3181 49.113C47.619 47.3382 46.1085 46.5976 45.8693 44.7234C45.5272 42.0484 48.313 41.2437 49.3181 37.198C50.0043 34.4318 50.7217 30.4446 50.0257 27.7579C49.3686 25.219 48.7971 23.0164 46.89 20.8584C46.4312 20.3413 42.6656 16.7448 38.3032 16.1538C36.2931 15.8837 34.5006 18.4576 32.0706 19.0116C29.277 19.6474 27.6771 20.011 26.1141 21.2064C23.4721 23.2243 22.7276 26.2416 22.0374 29.0449C21.497 31.2378 20.7971 34.0741 21.7244 37.5111Z" fill="#2F2E41"/>
</g>
<path id="Vector_7" d="M10.8371 10.8371C17.8254 3.84883 27.1171 0 37 0C46.8829 0 56.1746 3.84883 63.1629 10.8371C70.1512 17.8254 74 27.1171 74 37C74 46.0205 70.7938 54.5486 64.9183 61.2823C64.3577 61.9263 63.7721 62.5536 63.1629 63.1629C62.2184 64.1074 61.2308 64.9962 60.2057 65.8224C60.2015 65.8266 60.1987 65.8294 60.1945 65.8322C53.6417 71.1248 45.542 74 37 74C27.1171 74 17.8254 70.1512 10.8371 63.1629C3.84883 56.1746 0 46.8829 0 37C0 27.1171 3.84883 17.8254 10.8371 10.8371ZM12.9444 64.7222C15.3188 66.7878 17.9617 68.5515 20.8118 69.9564C21.8119 70.4502 22.8371 70.8995 23.8859 71.3015C27.96 72.865 32.382 73.7218 37 73.7218C41.4567 73.7218 45.7298 72.9234 49.6843 71.4629C51.3076 70.8647 52.8766 70.1539 54.383 69.3402C54.6042 69.2206 54.824 69.0996 55.0424 68.9758C56.1913 68.3248 57.3027 67.614 58.3696 66.8462C60.7537 65.1353 62.925 63.1462 64.8335 60.9262C70.3709 54.4943 73.7218 46.1318 73.7218 37C73.7218 16.7515 57.2485 0.278196 37 0.278196C16.7515 0.278196 0.278191 16.7515 0.278191 37C0.278191 48.0555 5.18834 57.9857 12.9444 64.7222Z" fill="#2F2E41"/>
</g>
<defs>
<clipPath id="clip0_74_1718">
<rect width="74" height="74" fill="white" transform="matrix(-1 0 0 1 74 0)"/>
</clipPath>
</defs>
</svg>
