<svg width="74" height="74" viewBox="0 0 74 74" fill="none" xmlns="http://www.w3.org/2000/svg">
<g id="undraw_male_avatar_g98d 1" clip-path="url(#clip0_74_1642)">
<path id="Vector" d="M37.6621 48.3063C44.2955 48.3063 49.673 42.9288 49.673 36.2954C49.673 29.6619 44.2955 24.2844 37.6621 24.2844C31.0286 24.2844 25.6511 29.6619 25.6511 36.2954C25.6511 42.9288 31.0286 48.3063 37.6621 48.3063Z" fill="#FFB6B6"/>
<path id="Vector_2" d="M30.767 50.0824L30.2244 44.5973L41.0602 42.5712L47.4587 58.1501L36.3309 70.9471L28.4023 55.3682L30.767 50.0824Z" fill="#FFB6B6"/>
<path id="Vector_3" d="M30.0503 47.343L32.4193 47.8783C32.4193 47.8783 30.557 41.9729 31.1891 41.4091C31.8212 40.8454 33.3702 41.7337 33.3702 41.7337L34.9979 43.5586L36.9806 41.54C36.9806 41.54 39.1331 38.8635 39.9759 38.1118C40.8187 37.36 39.465 34.5698 39.465 34.5698C39.465 34.5698 51.9688 31.1982 47.3161 25.1335C47.3161 25.1335 44.5883 20.3785 43.6999 21.9275C42.8116 23.4764 41.7523 21.0163 41.7523 21.0163L38.5178 21.6314C38.5178 21.6314 32.134 17.8674 26.075 25.9198C20.0161 33.9721 30.0503 47.343 30.0503 47.343Z" fill="#2F2E41"/>
<path id="Vector_4" d="M60.2516 65.7862C53.6876 71.1081 45.567 74 37 74C29.1771 74 21.7257 71.588 15.4927 67.1174C15.5038 67.0006 15.515 66.8851 15.5247 66.7697C15.6902 64.9614 15.8377 63.2032 15.935 61.7455C16.312 56.0856 29.5165 52.3132 29.5165 52.3132C29.5165 52.3132 29.5764 52.373 29.696 52.4774C30.4249 53.1172 33.3835 55.4374 38.5718 56.0856C43.1982 56.6642 44.7213 53.9198 45.1817 52.6053C45.3208 52.2047 45.3626 51.9363 45.3626 51.9363L58.9441 58.3501C59.8301 59.6159 60.1765 62.3422 60.2446 65.4065C60.2474 65.5331 60.2502 65.6583 60.2516 65.7862Z" fill="#FF4A4A"/>
<path id="Vector_5" d="M63.1629 10.8371C56.1746 3.84883 46.8829 0 37 0C27.1171 0 17.8254 3.84883 10.8371 10.8371C3.84884 17.8254 0 27.1171 0 37C0 46.0205 3.20621 54.5486 9.0817 61.2823C9.64226 61.9263 10.2279 62.5536 10.8371 63.1629C10.9804 63.3062 11.125 63.4494 11.2711 63.5885C11.6606 63.9655 12.057 64.3341 12.4604 64.6916C12.7052 64.91 12.9528 65.1242 13.2032 65.3342C13.3993 65.4997 13.5954 65.6625 13.7943 65.8224C13.7985 65.8266 13.8013 65.8294 13.8055 65.8322C14.3577 66.2773 14.9196 66.7057 15.4927 67.1174C21.7257 71.5881 29.1771 74 37 74C45.567 74 53.6876 71.1082 60.2516 65.7863C60.7871 65.3523 61.3115 64.9016 61.8262 64.4356C62.281 64.0239 62.7261 63.5997 63.1629 63.1629C63.3006 63.0252 63.4383 62.8861 63.5732 62.7456C63.9488 62.3589 64.3132 61.9653 64.6693 61.5661C70.702 54.7892 74 46.1485 74 37C74 27.1171 70.1512 17.8254 63.1629 10.8371ZM64.5789 61.2197C64.2312 61.6147 63.8751 62.0042 63.5106 62.3839C62.9431 62.9751 62.3575 63.5482 61.7524 64.1004C61.5229 64.3119 61.2906 64.5177 61.0556 64.7222C60.7885 64.9545 60.5187 65.1826 60.2446 65.4065C58.0844 67.18 55.7184 68.7101 53.1882 69.9564C52.1881 70.4502 51.1629 70.8995 50.1141 71.3015C46.04 72.865 41.618 73.7218 37 73.7218C32.5433 73.7218 28.2702 72.9234 24.3157 71.4629C22.6924 70.8647 21.1234 70.154 19.617 69.3402C19.3958 69.2206 19.176 69.0996 18.9576 68.9758C17.8087 68.3248 16.6973 67.614 15.6304 66.8462C15.5956 66.8212 15.5595 66.7947 15.5247 66.7697C14.7652 66.2217 14.0266 65.6444 13.313 65.0379C13.0515 64.8168 12.7928 64.5928 12.5383 64.3633C12.1238 63.9947 11.7176 63.615 11.3212 63.2255C10.57 62.4897 9.8523 61.7232 9.16655 60.9262C3.62906 54.4943 0.278196 46.1318 0.278196 37C0.278196 16.7515 16.7515 0.278196 37 0.278196C57.2485 0.278196 73.7218 16.7515 73.7218 37C73.7218 46.2723 70.268 54.7517 64.5789 61.2197Z" fill="#2F2E41"/>
</g>
<defs>
<clipPath id="clip0_74_1642">
<rect width="74" height="74" fill="white"/>
</clipPath>
</defs>
</svg>
