<svg width="74" height="74" viewBox="0 0 74 74" fill="none" xmlns="http://www.w3.org/2000/svg">
<g id="undraw_pic_profile_re_7g2h" clip-path="url(#clip0_74_1710)">
<g id="Group">
<g id="Group_2">
<path id="Vector" d="M36.3381 48.3056C29.7046 48.3056 24.3271 42.9281 24.3271 36.2946C24.3271 29.6612 29.7046 24.2837 36.3381 24.2837C42.9715 24.2837 48.349 29.6612 48.349 36.2946C48.349 42.9281 42.9715 48.3056 36.3381 48.3056Z" fill="#A0616A"/>
<path id="Vector_2" d="M46.2795 50.995L43.7758 44.5965L30.8397 42.6492L29.4498 56.813L42.525 57.0912L46.2795 50.995Z" fill="#A0616A"/>
</g>
<path id="Vector_3" d="M24.2107 38.5107C24.3666 39.1352 24.6817 40.6222 25.1738 40.6295C25.5759 40.6354 25.9607 34.1845 25.5591 33.1174C25.0978 31.8916 26.31 30.341 27.2232 29.545C28.8652 28.1137 32.5099 31.187 36.2161 29.7948C36.3143 29.7579 36.2947 29.7621 37.4651 29.2952C41.0663 27.8583 41.2556 27.8169 41.4619 27.7964C43.2076 27.6236 45.3381 29.0522 46.2081 30.794C47.1125 32.6045 46.3569 34.1575 47.2073 38.5378C47.3064 39.0484 47.4621 39.7761 47.7069 39.7868C48.1546 39.8063 48.5917 37.4154 48.7061 36.7892C49.1857 34.1656 49.6481 31.6361 48.7061 28.7956C48.6034 28.4858 47.9701 27.3358 46.7077 25.0486C44.8891 21.7536 43.9744 20.0999 43.7101 19.8027C41.8144 17.6709 38.3638 15.7261 35.4667 16.5553C34.0024 16.9744 34.2649 17.6482 32.4691 18.3039C29.2687 19.4724 26.4872 18.0434 25.9742 19.0533C25.7025 19.5883 26.4628 20.0294 26.4738 21.0517C26.4928 22.806 24.2741 23.3129 22.9766 25.0486C22.2791 25.9816 21.0852 25.9917 24.2107 38.5107Z" fill="#2F2E41"/>
</g>
<path id="Vector_4" d="M9.33066 61.5661C9.81475 62.1099 10.3169 62.6427 10.8371 63.163C17.8254 70.1511 27.1171 74 37 74C45.542 74 53.6416 71.1248 60.1946 65.8322C60.1987 65.8295 60.2015 65.8266 60.2057 65.8224C61.075 65.1215 61.9166 64.3759 62.7289 63.5885C62.7136 63.4662 62.6969 63.3451 62.6789 63.2254C62.5648 62.4187 62.4382 61.6495 62.2963 60.9415C61.1349 55.1384 45.8522 49.0459 45.4544 48.8872C45.4488 48.8859 45.446 48.8845 45.446 48.8845C45.446 48.8845 43.4792 56.1343 35.0512 56.0411C29.3107 55.9785 30.4235 48.8845 30.4235 48.8845C30.4235 48.8845 30.3539 48.8984 30.2232 48.9262C28.5651 49.2782 17.0534 51.8069 12.5118 55.258C11.1278 56.3095 10.1347 58.5491 9.42109 61.2197C9.3905 61.3338 9.36129 61.4506 9.33066 61.5661Z" fill="#FF4A4A"/>
<path id="Vector_5" d="M10.8371 10.8371C17.8254 3.84896 27.1171 0 37 0C46.8829 0 56.1746 3.84896 63.1629 10.8371C70.1511 17.8254 74 27.1171 74 37C74 46.0206 70.7938 54.5486 64.9183 61.2823C64.3577 61.9263 63.7721 62.5536 63.1629 63.163C63.0196 63.3062 62.875 63.4495 62.7289 63.5886C61.9166 64.3759 61.075 65.1215 60.2057 65.8224C60.2015 65.8267 60.1987 65.8295 60.1945 65.8322C53.6416 71.1249 45.542 74 37 74C27.1171 74 17.8254 70.1512 10.8371 63.163C10.3169 62.6428 9.81474 62.11 9.33065 61.5661C3.298 54.7893 0 46.1485 0 37C0 27.1171 3.84882 17.8254 10.8371 10.8371ZM9.42108 61.2197C10.5158 62.4647 11.6926 63.6359 12.9444 64.7223C15.3188 66.7878 17.9617 68.5516 20.8118 69.9565C21.8119 70.4503 22.8371 70.8995 23.8859 71.3016C27.96 72.8651 32.382 73.7218 37 73.7218C41.4567 73.7218 45.7298 72.9235 49.6843 71.463C51.3076 70.8647 52.8766 70.154 54.383 69.3402C54.6042 69.2207 54.824 69.0997 55.0424 68.9759C56.1913 68.3248 57.3027 67.6141 58.3696 66.8463C59.8983 65.7502 61.3393 64.5386 62.6788 63.2255C63.43 62.4897 64.1477 61.7233 64.8334 60.9263C70.3709 54.4944 73.7218 46.1318 73.7218 37C73.7218 16.7516 57.2485 0.278196 37 0.278196C16.7515 0.278196 0.278191 16.7516 0.278191 37C0.278191 46.2723 3.73196 54.7517 9.42108 61.2197Z" fill="#2F2E41"/>
</g>
<defs>
<clipPath id="clip0_74_1710">
<rect width="74" height="74" fill="white" transform="matrix(-1 0 0 1 74 0)"/>
</clipPath>
</defs>
</svg>
